<svg xmlns="http://www.w3.org/2000/svg" xml:space="preserve" width="128px" height="128px" version="1.1" style="shape-rendering:geometricPrecision; text-rendering:geometricPrecision; image-rendering:optimizeQuality; fill-rule:evenodd; clip-rule:evenodd"
viewBox="0 0 128000 128000"
 xmlns:xlink="http://www.w3.org/1999/xlink">
 <g>
  <metadata/>
  <path class="fil0" d="M125687 123373l-1169 0c257,-724 398,-1503 398,-2314 0,-1715 -624,-3332 -1727,-4580 122,-519 185,-1052 185,-1587 0,-3015 -1934,-5587 -4626,-6542l0 -81363c0,-1278 -1036,-2313 -2313,-2313l-34699 0 0 -22361c0,-1278 -1036,-2313 -2313,-2313l-67855 0c-1277,0 -2313,1035 -2313,2313l0 106037c-2692,955 -4627,3526 -4627,6542 0,535 63,1069 185,1587 -1103,1249 -1728,2865 -1728,4580 0,811 141,1590 398,2314l-1169 0c-1278,0 -2313,1035 -2313,2313 0,1278 1036,2313 2313,2313l123373 0c1278,0 2313,-1036 2313,-2313 0,-1277 -1036,-2313 -2313,-2313zm-57060 -26217c1278,0 2313,-1035 2313,-2313l0 -3084c0,-1278 -1036,-2313 -2313,-2313 -1277,0 -2313,1035 -2313,2313l0 3084c0,1278 1036,2313 2313,2313zm-9253 0c1277,0 2313,-1035 2313,-2313l0 -3084c0,-1278 -1036,-2313 -2313,-2313 -1278,0 -2313,1035 -2313,2313l0 3084c0,1278 1036,2313 2313,2313zm-9253 0c1278,0 2313,-1035 2313,-2313l0 -3084c0,-1278 -1036,-2313 -2313,-2313 -1278,0 -2313,1035 -2313,2313l0 3084c0,1278 1036,2313 2313,2313zm-9253 0c1278,0 2313,-1035 2313,-2313l0 -3084c0,-1278 -1036,-2313 -2313,-2313 -1278,0 -2313,1035 -2313,2313l0 3084c0,1278 1036,2313 2313,2313zm-9253 0c1277,0 2313,-1035 2313,-2313l0 -3084c0,-1278 -1036,-2313 -2313,-2313 -1278,0 -2313,1035 -2313,2313l0 3084c0,1278 1036,2313 2313,2313zm-9253 0c1277,0 2313,-1035 2313,-2313l0 -3084c0,-1278 -1036,-2313 -2313,-2313 -1278,0 -2313,1035 -2313,2313l0 3084c0,1278 1036,2313 2313,2313zm46265 -15422c1278,0 2313,-1035 2313,-2313l0 -3084c0,-1278 -1036,-2313 -2313,-2313 -1277,0 -2313,1035 -2313,2313l0 3084c0,1278 1036,2313 2313,2313zm-9253 0c1277,0 2313,-1035 2313,-2313l0 -3084c0,-1278 -1036,-2313 -2313,-2313 -1278,0 -2313,1035 -2313,2313l0 3084c0,1278 1036,2313 2313,2313zm-9253 0c1278,0 2313,-1035 2313,-2313l0 -3084c0,-1278 -1036,-2313 -2313,-2313 -1278,0 -2313,1035 -2313,2313l0 3084c0,1278 1036,2313 2313,2313zm-9253 0c1278,0 2313,-1035 2313,-2313l0 -3084c0,-1278 -1036,-2313 -2313,-2313 -1278,0 -2313,1035 -2313,2313l0 3084c0,1278 1036,2313 2313,2313zm-9253 0c1277,0 2313,-1035 2313,-2313l0 -3084c0,-1278 -1036,-2313 -2313,-2313 -1278,0 -2313,1035 -2313,2313l0 3084c0,1278 1036,2313 2313,2313zm-9253 0c1277,0 2313,-1035 2313,-2313l0 -3084c0,-1278 -1036,-2313 -2313,-2313 -1278,0 -2313,1035 -2313,2313l0 3084c0,1278 1036,2313 2313,2313zm46265 -15422c1278,0 2313,-1035 2313,-2313l0 -3084c0,-1278 -1036,-2313 -2313,-2313 -1277,0 -2313,1035 -2313,2313l0 3084c0,1278 1036,2313 2313,2313zm-9253 0c1277,0 2313,-1035 2313,-2313l0 -3084c0,-1278 -1036,-2313 -2313,-2313 -1278,0 -2313,1035 -2313,2313l0 3084c0,1278 1036,2313 2313,2313zm-9253 0c1278,0 2313,-1035 2313,-2313l0 -3084c0,-1278 -1036,-2313 -2313,-2313 -1278,0 -2313,1035 -2313,2313l0 3084c0,1278 1036,2313 2313,2313zm-9253 0c1278,0 2313,-1035 2313,-2313l0 -3084c0,-1278 -1036,-2313 -2313,-2313 -1278,0 -2313,1035 -2313,2313l0 3084c0,1278 1036,2313 2313,2313zm-9253 0c1277,0 2313,-1035 2313,-2313l0 -3084c0,-1278 -1036,-2313 -2313,-2313 -1278,0 -2313,1035 -2313,2313l0 3084c0,1278 1036,2313 2313,2313zm-9253 0c1277,0 2313,-1035 2313,-2313l0 -3084c0,-1278 -1036,-2313 -2313,-2313 -1278,0 -2313,1035 -2313,2313l0 3084c0,1278 1036,2313 2313,2313zm46265 -15422c1278,0 2313,-1035 2313,-2313l0 -3084c0,-1278 -1036,-2313 -2313,-2313 -1277,0 -2313,1035 -2313,2313l0 3084c0,1278 1036,2313 2313,2313zm-9253 0c1277,0 2313,-1035 2313,-2313l0 -3084c0,-1278 -1036,-2313 -2313,-2313 -1278,0 -2313,1035 -2313,2313l0 3084c0,1278 1036,2313 2313,2313zm-9253 0c1278,0 2313,-1035 2313,-2313l0 -3084c0,-1278 -1036,-2313 -2313,-2313 -1278,0 -2313,1035 -2313,2313l0 3084c0,1278 1036,2313 2313,2313zm-9253 0c1278,0 2313,-1035 2313,-2313l0 -3084c0,-1278 -1036,-2313 -2313,-2313 -1278,0 -2313,1035 -2313,2313l0 3084c0,1278 1036,2313 2313,2313zm-9253 0c1277,0 2313,-1035 2313,-2313l0 -3084c0,-1278 -1036,-2313 -2313,-2313 -1278,0 -2313,1035 -2313,2313l0 3084c0,1278 1036,2313 2313,2313zm-9253 0c1277,0 2313,-1035 2313,-2313l0 -3084c0,-1278 -1036,-2313 -2313,-2313 -1278,0 -2313,1035 -2313,2313l0 3084c0,1278 1036,2313 2313,2313zm46265 -15422c1278,0 2313,-1035 2313,-2313l0 -3084c0,-1278 -1036,-2313 -2313,-2313 -1277,0 -2313,1035 -2313,2313l0 3084c0,1278 1036,2313 2313,2313zm-9253 0c1277,0 2313,-1035 2313,-2313l0 -3084c0,-1278 -1036,-2313 -2313,-2313 -1278,0 -2313,1035 -2313,2313l0 3084c0,1278 1036,2313 2313,2313zm-9253 0c1278,0 2313,-1035 2313,-2313l0 -3084c0,-1278 -1036,-2313 -2313,-2313 -1278,0 -2313,1035 -2313,2313l0 3084c0,1278 1036,2313 2313,2313zm-9253 0c1278,0 2313,-1035 2313,-2313l0 -3084c0,-1278 -1036,-2313 -2313,-2313 -1278,0 -2313,1035 -2313,2313l0 3084c0,1278 1036,2313 2313,2313zm-9253 0c1277,0 2313,-1035 2313,-2313l0 -3084c0,-1278 -1036,-2313 -2313,-2313 -1278,0 -2313,1035 -2313,2313l0 3084c0,1278 1036,2313 2313,2313zm-9253 0c1277,0 2313,-1035 2313,-2313l0 -3084c0,-1278 -1036,-2313 -2313,-2313 -1278,0 -2313,1035 -2313,2313l0 3084c0,1278 1036,2313 2313,2313zm46265 -15422c1278,0 2313,-1035 2313,-2313l0 -3084c0,-1278 -1036,-2313 -2313,-2313 -1278,0 -2313,1035 -2313,2313l0 3084c0,1278 1036,2313 2313,2313zm-9253 0c1277,0 2313,-1035 2313,-2313l0 -3084c0,-1278 -1036,-2313 -2313,-2313 -1278,0 -2313,1035 -2313,2313l0 3084c0,1278 1036,2313 2313,2313zm-9253 0c1278,0 2313,-1035 2313,-2313l0 -3084c0,-1278 -1036,-2313 -2313,-2313 -1278,0 -2313,1035 -2313,2313l0 3084c0,1278 1036,2313 2313,2313zm-9253 0c1278,0 2313,-1035 2313,-2313l0 -3084c0,-1278 -1036,-2313 -2313,-2313 -1278,0 -2313,1035 -2313,2313l0 3084c0,1278 1036,2313 2313,2313zm-9253 0c1277,0 2313,-1035 2313,-2313l0 -3084c0,-1278 -1036,-2313 -2313,-2313 -1278,0 -2313,1035 -2313,2313l0 3084c0,1278 1036,2313 2313,2313zm-9253 0c1277,0 2313,-1035 2313,-2313l0 -3084c0,-1278 -1036,-2313 -2313,-2313 -1278,0 -2313,1035 -2313,2313l0 3084c0,1278 1036,2313 2313,2313zm66313 83277l18506 0c1278,0 2313,-1035 2313,-2313 0,-1278 -1036,-2313 -2313,-2313l-18506 0c-1278,0 -2313,1036 -2313,2313 0,1278 1036,2313 2313,2313zm0 -12337l18506 0c1278,0 2313,-1035 2313,-2313 0,-1278 -1036,-2313 -2313,-2313l-18506 0c-1278,0 -2313,1035 -2313,2313 0,1278 1036,2313 2313,2313zm0 -12337l18506 0c1278,0 2313,-1035 2313,-2313 0,-1278 -1036,-2313 -2313,-2313l-18506 0c-1278,0 -2313,1035 -2313,2313 0,1278 1036,2313 2313,2313zm0 -12337l18506 0c1278,0 2313,-1035 2313,-2313 0,-1278 -1036,-2313 -2313,-2313l-18506 0c-1278,0 -2313,1035 -2313,2313 0,1278 1036,2313 2313,2313zm0 -12337l18506 0c1278,0 2313,-1035 2313,-2313 0,-1278 -1036,-2313 -2313,-2313l-18506 0c-1278,0 -2313,1035 -2313,2313 0,1278 1036,2313 2313,2313zm0 -12337l18506 0c1278,0 2313,-1035 2313,-2313 0,-1278 -1036,-2313 -2313,-2313l-18506 0c-1278,0 -2313,1035 -2313,2313 0,1278 1036,2313 2313,2313zm-6940 -12337l32386 0 0 79050c-263,94 -521,202 -771,327 -952,-475 -2005,-726 -3084,-726 -1079,0 -2133,252 -3084,726 -952,-475 -2005,-726 -3084,-726 -1079,0 -2133,252 -3084,726 -952,-475 -2005,-726 -3084,-726 -1079,0 -2133,252 -3084,726 -951,-475 -2005,-726 -3084,-726 -1079,0 -2133,252 -3084,726 -952,-475 -2005,-726 -3084,-726 -1079,0 -2133,252 -3084,726 -251,-125 -508,-233 -771,-327l0 -79050 -1 0zm-67855 -24675l63229 0 0 22361 0 81364c-263,94 -521,202 -771,327 -952,-475 -2005,-726 -3084,-726 -796,0 -1577,138 -2313,399l0 -1172c0,-1278 -1036,-2313 -2313,-2313 -1278,0 -2313,1036 -2313,2313l0 816c-808,90 -1590,322 -2313,682 -723,-361 -1505,-592 -2313,-682l0 -816c0,-1278 -1036,-2313 -2313,-2313 -1277,0 -2313,1036 -2313,2313l0 1171c-737,-261 -1518,-399 -2313,-399 -795,0 -1577,138 -2313,399l0 -1171c0,-1278 -1036,-2313 -2313,-2313 -1277,0 -2313,1036 -2313,2313l0 816c-808,90 -1590,322 -2313,682 -723,-361 -1505,-592 -2313,-682l0 -816c0,-1278 -1036,-2313 -2313,-2313 -1278,0 -2313,1036 -2313,2313l0 1171c-737,-261 -1518,-399 -2313,-399 -795,0 -1576,138 -2313,399l0 -1171c0,-1278 -1036,-2313 -2313,-2313 -1278,0 -2313,1036 -2313,2313l0 816c-808,90 -1590,322 -2313,682 -723,-361 -1505,-592 -2313,-682l0 -816c0,-1278 -1035,-2313 -2313,-2313 -1278,0 -2313,1036 -2313,2313l0 1171c-737,-261 -1518,-399 -2313,-399 -1079,0 -2133,252 -3084,726 -251,-125 -508,-233 -771,-327l0 -103725zm104102 118747c-4,0 -8,1 -12,1l-107933 0c-4,0 -8,-1 -12,-1 -1276,0 -2313,-1037 -2313,-2313 0,-790 401,-1519 1073,-1949 1035,-662 1372,-2017 768,-3087 -198,-351 -298,-732 -298,-1132 0,-1276 1037,-2313 2313,-2313 726,0 1238,323 1540,594 879,789 2210,789 3089,0 302,-271 814,-594 1540,-594 726,0 1238,323 1540,594 879,789 2211,789 3090,0 302,-271 814,-594 1540,-594 726,0 1238,323 1540,594 879,789 2210,789 3089,0 302,-271 814,-594 1540,-594 725,0 1238,323 1540,594 879,789 2210,789 3089,0 302,-271 814,-594 1540,-594 725,0 1238,323 1540,594 879,789 2210,789 3089,0 302,-271 814,-594 1540,-594 725,0 1238,323 1540,594 879,789 2210,789 3089,0 302,-271 814,-594 1540,-594 726,0 1238,323 1540,594 879,789 2210,789 3089,0 302,-271 814,-594 1540,-594 726,0 1238,323 1540,594 879,789 2211,789 3089,0 302,-271 814,-594 1540,-594 726,0 1238,323 1540,594 879,789 2211,789 3090,0 302,-271 814,-594 1540,-594 725,0 1238,323 1540,594 879,789 2210,789 3089,0 302,-271 814,-594 1540,-594 725,0 1238,323 1540,594 879,789 2210,789 3089,0 302,-271 814,-594 1540,-594 725,0 1238,323 1540,594 879,789 2210,789 3089,0 302,-271 814,-594 1540,-594 725,0 1238,323 1540,594 879,789 2210,789 3089,0 302,-271 814,-594 1540,-594 726,0 1238,323 1540,594 879,789 2210,789 3089,0 302,-271 814,-594 1540,-594 726,0 1238,323 1540,594 879,789 2211,789 3089,0 302,-271 814,-594 1540,-594 726,0 1238,323 1540,594 879,789 2211,789 3090,0 302,-271 814,-594 1540,-594 725,0 1238,323 1540,594 879,789 2210,789 3089,0 302,-271 814,-594 1540,-594 1276,0 2313,1037 2313,2313 0,401 -100,781 -298,1132 -605,1070 -267,2425 768,3087 672,430 1073,1159 1073,1949 -2,1276 -1039,2313 -2315,2313z"/>
  <g>
  </g>
  <g>
  </g>
  <g>
  </g>
  <g>
  </g>
  <g>
  </g>
  <g>
  </g>
  <g>
  </g>
  <g>
  </g>
  <g>
  </g>
  <g>
  </g>
  <g>
  </g>
  <g>
  </g>
  <g>
  </g>
  <g>
  </g>
  <g>
  </g>
 </g>
</svg>
