<svg xmlns="http://www.w3.org/2000/svg" xml:space="preserve" width="595px" height="842px" version="1.1" style="shape-rendering:geometricPrecision; text-rendering:geometricPrecision; image-rendering:optimizeQuality; fill-rule:evenodd; clip-rule:evenodd"
viewBox="0 0 595000 841500"
 xmlns:xlink="http://www.w3.org/1999/xlink">
 <g>
  <metadata/>
  <path class="fil0" d="M259500 381391l31295 9504 1032 -3398 -33182 -10076 -14117 8147 1775 3076 12412 -7163c248,-142 531,-166 785,-89l0 -1zm31670 11699l-31835 -9668 -12900 7444c-477,274 -1085,109 -1359,-367l-2770 -4801c-274,-477 -109,-1085 367,-1359l15331 -8847c234,-143 525,-189 808,-103l34547 10491c526,160 823,716 664,1242l-1611 5304c-160,526 -716,823 -1242,664zm52026 86330l0 -9230c0,-133 26,-259 73,-375l1235 -4068 -33182 -10076 -14117 8146 1054 1826c90,157 133,327 132,496l4 0 0 13281c0,552 -448,1000 -1000,1000l-5877 0c-552,0 -1000,-448 -1000,-1000l0 -9230c0,-133 26,-259 73,-375l1235 -4068 -33182 -10076 -14118 8146 1054 1826c90,157 133,327 132,496l4 0 0 13281c0,552 -448,1000 -1000,1000l-7188 0 0 3302 119940 0 0 -3302 -13275 0c-552,0 -1000,-448 -1000,-1000zm1999 -9095l0 8096 13275 0c552,0 1000,448 1000,1000l0 5301c0,552 -448,1000 -1000,1000l-121939 0c-552,0 -1000,-448 -1000,-1000l0 -5301c0,-552 448,-1000 1000,-1000l7188 0 0 -12022 -1414 -2450c-274,-477 -109,-1085 367,-1359l15331 -8847c234,-143 525,-189 808,-103l34547 10491c526,160 823,716 664,1242l-1504 4953 0 8096 3878 0 0 -12022 -1414 -2450c-274,-477 -109,-1085 367,-1359l15331 -8847c234,-143 525,-189 808,-103l34547 10491c526,160 823,716 664,1242l-1504 4953zm-79706 9095l0 -11269c0,-552 448,-1000 1000,-1000 113,0 222,19 324,54l16835 4041c458,109 766,518 765,968l4 0 0 7206c0,552 -448,1000 -1000,1000l-16928 0c-552,0 -1000,-448 -1000,-1000zm1999 -10006l0 9006 14929 0 0 -5423 -14929 -3583zm50678 10006l0 -11269c0,-552 448,-1000 1000,-1000 113,0 222,19 324,54l16835 4041c458,109 766,518 765,968l4 0 0 7206c0,552 -448,1000 -1000,1000l-16928 0c-552,0 -1000,-448 -1000,-1000zm1999 -10006l0 9006 14929 0 0 -5423 -14929 -3583zm-7988 -19554l31295 9503 1032 -3398 -33182 -10076 -14117 8146 1775 3077 12413 -7162c248,-142 531,-166 785,-89l0 -1zm31670 11698l-31835 -9667 -12900 7444c-477,274 -1085,109 -1359,-367l-2770 -4801c-274,-477 -109,-1085 367,-1359l15331 -8847c234,-143 525,-189 808,-103l34547 10491c526,160 823,716 664,1242l-1610 5304c-160,526 -716,823 -1242,664zm-31670 -21480l31295 9503 1032 -3398 -33182 -10076 -14117 8146 1775 3077 12413 -7162c248,-142 531,-166 785,-89l0 -1zm31670 11698l-31835 -9667 -12900 7444c-477,274 -1085,109 -1359,-367l-2770 -4801c-274,-477 -109,-1085 367,-1359l15331 -8846c234,-143 525,-189 808,-103l34547 10490c526,160 823,716 664,1242l-1610 5304c-160,526 -716,823 -1242,664zm-31670 -21480l31295 9503 1032 -3398 -33182 -10076 -14117 8146 1775 3077 12413 -7162c248,-142 531,-166 785,-89l0 -1zm31670 11698l-31835 -9667 -12900 7444c-477,274 -1085,109 -1359,-367l-2770 -4801c-274,-477 -109,-1085 367,-1359l15331 -8847c234,-143 525,-189 808,-103l34547 10491c526,160 823,716 664,1242l-1610 5303c-160,526 -716,823 -1242,664zm-31670 -21480l31295 9503 1032 -3398 -33182 -10076 -14117 8146 1775 3076 12413 -7162c248,-142 531,-166 785,-89l0 -1zm31670 11698l-31835 -9667 -12900 7444c-477,274 -1085,109 -1359,-367l-2770 -4801c-274,-477 -109,-1085 367,-1359l15331 -8847c234,-143 525,-189 808,-103l34547 10490c526,160 823,716 664,1242l-1610 5304c-160,526 -716,823 -1242,664zm-31670 -21480l31295 9503 1032 -3398 -33182 -10076 -14117 8147 1775 3076 12413 -7163c248,-142 531,-166 785,-89l0 -1zm31670 11698l-31835 -9667 -12900 7444c-477,274 -1085,109 -1359,-367l-2770 -4801c-274,-477 -109,-1085 367,-1359l15331 -8847c234,-143 525,-189 808,-103l34547 10491c526,160 823,716 664,1242l-1610 5303c-160,526 -716,823 -1242,664zm-31670 -21480l31295 9504 1032 -3398 -33182 -10076 -14117 8147 1775 3076 12413 -7163c248,-142 531,-166 785,-89l0 -1zm31670 11699l-31835 -9668 -12900 7444c-477,274 -1085,109 -1359,-367l-2770 -4801c-274,-477 -109,-1085 367,-1359l15331 -8847c234,-143 525,-189 808,-103l34547 10491c526,160 823,716 664,1242l-1610 5304c-160,526 -716,823 -1242,664zm-31670 -21480l31295 9504 1032 -3398 -33182 -10076 -14117 8147 1775 3076 12413 -7163c248,-142 531,-166 785,-89l0 -1zm31670 11699l-31835 -9668 -12900 7444c-477,274 -1085,109 -1359,-367l-2770 -4801c-274,-477 -109,-1085 367,-1359l15331 -8847c234,-143 525,-189 808,-103l34547 10491c526,160 823,716 664,1242l-1610 5304c-160,526 -716,823 -1242,664zm-31670 -41042l31295 9503 1032 -3398 -33182 -10076 -14117 8147 1775 3076 12413 -7162c248,-142 531,-166 785,-89l0 -1zm31670 11698l-31835 -9667 -12900 7444c-477,274 -1085,109 -1359,-367l-2770 -4801c-274,-477 -109,-1085 367,-1359l15331 -8847c234,-143 525,-189 808,-103l34547 10491c526,160 823,716 664,1242l-1610 5304c-160,526 -716,823 -1242,664zm-31670 -1917l31295 9503 1032 -3398 -33182 -10076 -14117 8147 1775 3076 12413 -7162c248,-142 531,-166 785,-89l0 -1zm31670 11698l-31835 -9667 -12900 7444c-477,274 -1085,109 -1359,-367l-2770 -4801c-274,-477 -109,-1085 367,-1359l15331 -8847c234,-143 525,-189 808,-103l34547 10491c526,160 823,716 664,1242l-1610 5304c-160,526 -716,823 -1242,664zm-31670 -1917l31295 9504 1032 -3398 -33182 -10076 -14117 8147 1775 3076 12413 -7163c248,-142 531,-166 785,-89l0 -1zm31670 11699l-31835 -9668 -12900 7444c-477,274 -1085,109 -1359,-367l-2770 -4801c-274,-477 -109,-1085 367,-1359l15331 -8847c234,-143 525,-189 808,-103l34547 10491c526,160 823,716 664,1242l-1610 5304c-160,526 -716,823 -1242,664zm-84347 56770l31295 9503 1032 -3398 -33182 -10076 -14118 8146 1775 3077 12412 -7162c248,-142 531,-166 785,-89l0 -1zm31670 11698l-31835 -9667 -12900 7444c-477,274 -1085,109 -1359,-367l-2770 -4801c-274,-477 -109,-1085 367,-1359l15331 -8847c234,-143 525,-189 808,-103l34547 10491c526,160 823,716 664,1242l-1611 5304c-160,526 -716,823 -1242,664zm-31670 -21480l31295 9503 1032 -3398 -33182 -10076 -14118 8146 1775 3077 12412 -7162c248,-142 531,-166 785,-89l0 -1zm31670 11698l-31835 -9667 -12900 7444c-477,274 -1085,109 -1359,-367l-2770 -4801c-274,-477 -109,-1085 367,-1359l15331 -8846c234,-143 525,-189 808,-103l34547 10490c526,160 823,716 664,1242l-1611 5304c-160,526 -716,823 -1242,664zm-31670 -21480l31295 9503 1032 -3398 -33182 -10076 -14118 8146 1775 3077 12412 -7162c248,-142 531,-166 785,-89l0 -1zm31670 11698l-31835 -9667 -12900 7444c-477,274 -1085,109 -1359,-367l-2770 -4801c-274,-477 -109,-1085 367,-1359l15331 -8847c234,-143 525,-189 808,-103l34547 10491c526,160 823,716 664,1242l-1611 5303c-160,526 -716,823 -1242,664zm-31670 -21480l31295 9503 1032 -3398 -33182 -10076 -14118 8146 1775 3076 12412 -7162c248,-142 531,-166 785,-89l0 -1zm31670 11698l-31835 -9667 -12900 7444c-477,274 -1085,109 -1359,-367l-2770 -4801c-274,-477 -109,-1085 367,-1359l15331 -8847c234,-143 525,-189 808,-103l34547 10490c526,160 823,716 664,1242l-1611 5304c-160,526 -716,823 -1242,664zm-31670 -21480l31295 9503 1032 -3398 -33182 -10076 -14117 8147 1775 3076 12412 -7163c248,-142 531,-166 785,-89l0 -1zm31670 11698l-31835 -9667 -12900 7444c-477,274 -1085,109 -1359,-367l-2770 -4801c-274,-477 -109,-1085 367,-1359l15331 -8847c234,-143 525,-189 808,-103l34547 10491c526,160 823,716 664,1242l-1611 5303c-160,526 -716,823 -1242,664zm-31670 -21480l31295 9504 1032 -3398 -33182 -10076 -14117 8147 1775 3076 12412 -7163c248,-142 531,-166 785,-89l0 -1zm31670 11699l-31835 -9668 -12900 7444c-477,274 -1085,109 -1359,-367l-2770 -4801c-274,-477 -109,-1085 367,-1359l15331 -8847c234,-143 525,-189 808,-103l34547 10491c526,160 823,716 664,1242l-1611 5304c-160,526 -716,823 -1242,664zm-31670 -21480l31295 9504 1032 -3398 -33182 -10076 -14117 8147 1775 3076 12412 -7163c248,-142 531,-166 785,-89l0 -1zm31670 11699l-31835 -9668 -12900 7444c-477,274 -1085,109 -1359,-367l-2770 -4801c-274,-477 -109,-1085 367,-1359l15331 -8847c234,-143 525,-189 808,-103l34547 10491c526,160 823,716 664,1242l-1611 5304c-160,526 -716,823 -1242,664z"/>
  <g>
  </g>
  <g>
  </g>
  <g>
  </g>
  <g>
  </g>
  <g>
  </g>
  <g>
  </g>
  <g>
  </g>
  <g>
  </g>
  <g>
  </g>
  <g>
  </g>
  <g>
  </g>
  <g>
  </g>
  <g>
  </g>
  <g>
  </g>
  <g>
  </g>
 </g>
</svg>
