<svg xmlns="http://www.w3.org/2000/svg" xml:space="preserve" width="128px" height="128px" version="1.1" style="shape-rendering:geometricPrecision; text-rendering:geometricPrecision; image-rendering:optimizeQuality; fill-rule:evenodd; clip-rule:evenodd"
viewBox="0 0 128000 128000"
 xmlns:xlink="http://www.w3.org/1999/xlink">
 <g>
  <metadata/>
  <path class="fil0" d="M121716 0l-22192 0c-2566,0 -2568,3961 0,3961l22192 0c1312,0 2381,1085 2381,2416l0 94825c-20814,219 -20473,-482 -21518,582 -352,358 -570,853 -570,1399l0 20432 -25512 0c258,-710 398,-1476 398,-2276l0 -40964 14652 0c2566,0 2568,-3961 0,-3961l-14652 0 0 -8193 14652 0c2568,0 2566,-3961 0,-3961l-14652 0 0 -8191 14652 0c2566,0 2567,-3961 0,-3961l-14846 0c-721,-2951 -3339,-5032 -6340,-5032l-32051 0 0 -40700c0,-1331 1067,-2416 2378,-2416l51030 0c2569,0 2566,-3961 0,-3961l-51030 0c-3463,0 -6281,2860 -6281,6377l0 40700 -11426 0c-2569,0 -2566,3961 0,3961l47380 0c1452,0 2631,1196 2631,2670l0 67632c0,961 -502,1806 -1254,2276 -1206,755 2170,245 -65204,396 -1452,0 -2631,-1198 -2631,-2672l0 -67632c0,-1473 1178,-2670 2631,-2670l8641 0c2566,0 2568,-3961 0,-3961l-8641 1c-3604,0 -6534,2973 -6534,6630l0 67632c0,3657 2930,6633 6534,6633 66863,-143 64027,349 66049,-396l31378 0c511,0 1012,-206 1382,-581l22067 -22393c393,-388 592,-914 592,-1418l0 -96806c0,-3517 -2818,-6377 -6284,-6377zm-14992 12669l-55522 0c-1078,0 -1952,886 -1952,1980 0,1094 874,1980 1952,1980l55522 0c1078,0 1951,-886 1951,-1980 0,-1094 -874,-1980 -1951,-1980zm10405 63744l-15876 0c-2567,0 -2567,3961 0,3961l15876 0c2567,0 2567,-3961 0,-3961zm0 -12152l-15876 0c-2567,0 -2567,3961 0,3961l15876 0c2567,0 2567,-3961 0,-3961zm0 -12152l-15876 0c-2567,0 -2567,3961 0,3961l15876 0c2567,0 2567,-3961 0,-3961zm0 -12152l-15876 0c-2567,0 -2567,3961 0,3961l15876 0c2567,0 2568,-3961 0,-3961zm0 -12152l-15876 0c-2567,0 -2567,3961 0,3961l15876 0c2567,0 2568,-3961 0,-3961zm-25584 12152l-46268 0c-1078,0 -1952,886 -1952,1980 0,1094 874,1980 1952,1980l46268 0c2567,0 2567,-3961 0,-3961zm0 -12152l-46268 0c-2567,0 -2567,3961 0,3961l46268 0c2567,0 2567,-3961 0,-3961zm-48856 73880l-9052 0c-2321,0 -4208,1916 -4208,4270l0 8015c0,2355 1888,4270 4208,4270l9052 0c2320,0 4208,-1916 4208,-4270l0 -8015c0,-2354 -1888,-4270 -4208,-4270zm305 12285c0,171 -137,310 -305,310l-9052 0c-168,0 -305,-139 -305,-310l0 -8015c0,-171 137,-310 305,-310l9052 0c168,0 305,139 305,310l0 8015zm-22609 -12285l-9052 0c-2320,0 -4208,1916 -4208,4270l0 8015c0,2355 1888,4270 4208,4270l9052 0c2320,0 4208,-1916 4208,-4270l0 -8015c0,-2354 -1888,-4270 -4208,-4270zm305 12285c0,171 -137,310 -305,310l-9052 0c-168,0 -305,-139 -305,-310l0 -8015c0,-171 137,-310 305,-310l9052 0c168,0 305,139 305,310l0 8015zm48204 -16555l0 -10389c0,-3300 -2646,-5984 -5897,-5984l-5674 0c-3252,0 -5897,2685 -5897,5984l0 25231c0,3300 2645,5984 5897,5984l5674 0c3252,0 5897,-2685 5897,-5984l0 -6920c0,-2605 -3903,-2605 -3903,0l0 6920c0,1116 -894,2024 -1994,2024l-5674 0c-1100,0 -1994,-908 -1994,-2023l0 -25231c0,-1116 895,-2024 1994,-2024l5674 0c1100,0 1994,908 1994,2024l0 10389c0,2605 3903,2605 3903,0zm-26205 -16373l-9052 0c-2321,0 -4208,1916 -4208,4270l0 8015c0,2355 1888,4270 4208,4270l9052 0c2320,0 4208,-1916 4208,-4270l0 -8015c0,-2355 -1888,-4270 -4208,-4270zm305 12285c0,170 -137,310 -305,310l-9052 0c-168,0 -305,-139 -305,-310l0 -8015c0,-170 137,-310 305,-310l9052 0c168,0 305,139 305,310l0 8015zm-22609 -12285l-9052 0c-2320,0 -4208,1916 -4208,4270l0 8015c0,2355 1888,4270 4208,4270l9052 0c2320,0 4208,-1916 4208,-4270l0 -8015c0,-2355 -1888,-4270 -4208,-4270zm305 12285c0,170 -137,310 -305,310l-9052 0c-168,0 -305,-139 -305,-310l0 -8015c0,-170 137,-310 305,-310l9052 0c168,0 305,139 305,310l0 8015zm43424 -38434l-52208 0c-2636,0 -4781,2176 -4781,4851l0 8025c0,2675 2144,4851 4781,4851l52208 0c2636,0 4781,-2176 4781,-4851l0 -8025c0,-2674 -2145,-4851 -4781,-4851zm877 12875c0,491 -394,890 -877,890l-52208 0c-484,0 -878,-400 -878,-891l0 -8025c0,-490 394,-890 878,-890l52208 0c484,0 878,399 878,890l0 8025 0 0zm40922 53046l0 -15650 15422 0 -15422 15650z"/>
 </g>
</svg>
