<svg xmlns="http://www.w3.org/2000/svg" xml:space="preserve" width="595px" height="842px" version="1.1" style="shape-rendering:geometricPrecision; text-rendering:geometricPrecision; image-rendering:optimizeQuality; fill-rule:evenodd; clip-rule:evenodd"
viewBox="0 0 595000 841500" xmlns:xlink="http://www.w3.org/1999/xlink">
 <g>
  <metadata/>
  <path class="fil0" d="M295626 419251l1499 0 0 1499 -1499 0 0 -1499zm2249 0l1499 0 0 1499 -1499 0 0 -1499zm2249 0l1499 0 0 1499 -1499 0 0 -1499zm-6747 4498l1499 0 0 1499 -1499 0 0 -1499zm2249 0l1499 0 0 1499 -1499 0 0 -1499zm2249 0l1499 0 0 1499 -1499 0 0 -1499zm-2249 -2249l1499 0 0 1499 -1499 0 0 -1499zm2249 0l1499 0 0 1499 -1499 0 0 -1499zm2249 0l1499 0 0 1499 -1499 0 0 -1499zm-6747 0l1499 0 0 1499 -1499 0 0 -1499zm8246 -6747l0 750 -1499 0 0 -750 -5248 0 0 750 -1499 0 0 -750 -1499 0 0 11994 11245 0 0 -11994 -1499 0 1 0zm750 11245l-9746 0 0 -8246 9746 0 0 8246z"/>
 </g>
</svg>
