<svg xmlns="http://www.w3.org/2000/svg" xml:space="preserve" width="128px" height="128px" version="1.1" style="shape-rendering:geometricPrecision; text-rendering:geometricPrecision; image-rendering:optimizeQuality; fill-rule:evenodd; clip-rule:evenodd"
viewBox="0 0 128000 128000"
 xmlns:xlink="http://www.w3.org/1999/xlink">
 <g>
  <metadata/>
  <path class="fil0" d="M80998 102345l-77344 0c-4456,0 -3789,-2784 -3691,-2760 117,-380 358,-761 730,-1125l38260 -37444c0,-437 2845,-1632 3280,-1773 1311,-425 2792,-689 4123,-689l77344 0c1168,0 2875,211 3536,1330 562,947 126,1870 -578,2558l-38256 37440c-724,708 -1926,2023 -3280,2462 -1311,425 -2790,0 -4123,0zm-67303 -39783l-9672 0c-2104,0 -5518,-1384 -2961,-3884l38260 -37444c0,-636 2738,-1597 3280,-1773 1311,-425 2792,-689 4123,-689l77344 0c1055,0 1913,168 2519,456 461,219 804,515 1017,875 256,434 315,916 158,1428 -116,379 -359,761 -737,1130l-13661 13370c-606,592 -4692,289 -5762,289l1190 -1164 -21642 0 -1190 1164c-1822,0 -3645,0 -5467,0l1190 -1164 -24012 0 -1190 1164c-1822,0 -3644,0 -5466,0l1190 -1164 -21642 0 -11265 11025 11409 0 -3186 3268 -11562 0 -10062 9847 11543 0 -3341 3268 -404 0zm20209 -30676l21642 0 10062 -9847 -20178 0c-460,0 -1778,307 -2095,616l-9432 9231zm27109 0l24012 0 10062 -9847 -24012 0 -10062 9847zm29479 0l21642 0 10062 -9847 -21641 0 -10062 9847zm-76775 50245l-9390 0c-1054,0 -1912,-168 -2517,-456 -1565,-744 -1624,-2274 -444,-3428l38260 -37444c41,-1 2785,-1697 3405,-1898 1312,-425 2667,-564 3998,-564l77344 0c1545,0 4353,606 3694,2758 -116,379 -359,761 -737,1130l-13974 13745 -5449 -86 1190 -1164 -21642 0 -1145 1313 -5511 -149 1190 -1164 -24013 0 -1190 1164 -5465 0 1189 -1164 -21642 0 -11265 11025 11274 0 -3342 3268 -11271 0 -10062 9847 11261 0 -3051 2983 -695 285zm20490 -30676l21642 0 10062 -9847 -20178 0c-415,0 -877,82 -1287,215 -366,119 -667,264 -812,405l-9428 9227zm27109 0l24012 0 10062 -9847 -24012 0 -10062 9847zm29479 0l21642 0 10062 -9847 -21642 0 -10062 9847zm-57259 20213l21642 0 10062 -9847 -20178 0c-415,0 -877,82 -1287,215 -367,118 -666,262 -807,401l-9432 9231zm27108 0l24013 0 10062 -9847 -24012 0 -10062 9847zm29479 0l21642 0 10062 -9847 -21641 0 -10062 9847zm18303 3268l-21642 0 -11265 11025 21642 0 11265 -11025zm-27108 0l-24012 0 -11265 11025 24012 0 11265 -11025zm-29479 0l-21642 0 -11265 11025 21642 0 11265 -11025zm41983 14293l-21642 0 -10062 9847 20178 0c722,0 1557,-90 2094,-617l9432 -9231zm-27109 0l-24012 0 -10062 9847 24012 0 10062 -9847zm-29479 0l-21642 0 -10062 9847 21642 0 10062 -9847z"/>
 </g>
 <g>
  <metadata/>
 </g>
</svg>
