<?xml-stylesheet href="contract.css" type="text/css"?>
<svg xmlns="http://www.w3.org/2000/svg" xml:space="preserve" width="128px" height="128px" version="1.1" style="shape-rendering:geometricPrecision; text-rendering:geometricPrecision; image-rendering:optimizeQuality; fill-rule:evenodd; clip-rule:evenodd"
viewBox="0 0 128000 128000"
 xmlns:xlink="http://www.w3.org/1999/xlink">
 <g>
  <metadata/>
  <path class="fil0" d="M83885 12811l-15876 0c-2567,0 -2567,3961 0,3961l15876 0c2567,0 2568,-3961 0,-3961zm25834 37367l-44964 44969c-22,19 -28,47 -47,66 -169,175 -306,379 -405,601l-17 36 -9025 21058c-282,658 -215,1414 179,2013 394,598 1063,958 1779,958 289,0 575,-58 840,-173l21057 -9025 36 -17c223,-99 426,-236 601,-405 19,-19 47,-26 66,-47l44968 -44966c9923,-10013 -5141,-24910 -15068,-15068zm-48452 63521l5703 -13306 7603 7603 -13306 5702 0 1zm17048 -8006l-9042 -9042 27928 -27925 9040 9040 -27926 27927 0 1zm30939 -30941l-9040 -9040 3480 -3482 9042 9042 -3482 3480zm12513 -12513l-6028 6028 -9031 -9050 6029 -6018c6012,-6012 14926,3154 9042,9042l-12 -2zm-30136 48151l0 11144c0,1177 -954,2131 -2131,2131l-83108 0c-1177,0 -2131,-954 -2131,-2131l0 -115071c0,-1177 954,-2131 2131,-2131l83107 0c1177,0 2131,954 2131,2131l0 47960c0,2803 4262,2803 4262,0l0 -47960c0,-3531 -2862,-6393 -6393,-6393l-83107 0c-3531,0 -6393,2862 -6393,6393l0 115071c0,3531 2862,6393 6393,6393l83107 0c3531,0 6393,-2862 6393,-6393l0 -11143c0,-2802 -4261,-2813 -4261,-1zm-33331 -48965l-46268 0c-1078,0 -1952,886 -1952,1980 0,1094 874,1980 1952,1980l46268 0c2567,0 2567,-3961 0,-3961zm25584 0l-15876 0c-2567,0 -2567,3961 0,3961l15876 0c2567,0 2568,-3961 0,-3961zm-25584 -12153l-46268 0c-1078,0 -1952,886 -1952,1980 0,1094 874,1980 1952,1980l46268 0c2567,0 2567,-3961 0,-3961zm25584 0l-15876 0c-2567,0 -2567,3961 0,3961l15876 0c2567,0 2568,-3961 0,-3961zm-25584 -12156l-46268 0c-1078,0 -1952,886 -1952,1980 0,1094 874,1980 1952,1980l46268 0c2567,0 2567,-3961 0,-3961zm25584 0l-15876 0c-2567,0 -2567,3961 0,3961l15876 0c2567,0 2568,-3961 0,-3961zm-25584 -24306l-46268 0c-2567,0 -2567,3961 0,3961l46268 0c2567,0 2567,-3961 0,-3961zm0 12152l-46268 0c-1078,0 -1952,886 -1952,1980 0,1094 874,1980 1952,1980l46268 0c2567,0 2567,-3961 0,-3961zm25584 0l-15876 0c-2567,0 -2567,3961 0,3961l15876 0c2567,0 2568,-3961 0,-3961z"/>
 </g>
 <g>
  <metadata/>
 </g>
</svg>
