<?xml-stylesheet href="door1.css" type="text/css"?>
<svg xmlns="http://www.w3.org/2000/svg" xml:space="preserve" width="128px" height="128px" version="1.1" style="shape-rendering:geometricPrecision; text-rendering:geometricPrecision; image-rendering:optimizeQuality; fill-rule:evenodd; clip-rule:evenodd"
viewBox="0 0 128000 128000"
 xmlns:xlink="http://www.w3.org/1999/xlink">
 <g>
  <metadata/>
  <path class="fil0" d="M99748 14l-71495 0c-1210,0 -2190,981 -2190,2191l0 16676c0,2881 4381,2879 4381,0l0 -14486 67114 0 0 119237 -67114 0 0 -97526c0,-2880 -4381,-2881 -4381,0l0 99715c0,1210 981,2191 2190,2191l71495 0c1210,0 2190,-981 2190,-2191l0 -123618c0,-1954 -2190,-2335 -2190,-2190zm-30979 53176l21748 0c1210,0 2190,-981 2190,-2191l0 -14412c0,-1210 -981,-2191 -2190,-2191l-21748 0c-1210,0 -2190,981 -2190,2191l0 14412c0,1210 981,2191 2190,2191zm2191 -14412l17367 0 0 10031 -17367 0 0 -10031zm-33447 14412l21748 0c1210,0 2190,-981 2190,-2191l0 -14412c0,-1210 -981,-2191 -2190,-2191l-21748 0c-1210,0 -2190,981 -2190,2191l0 14412c0,1210 981,2191 2190,2191zm2191 -14412l17367 0 0 10031 -17367 0 0 -10031zm7628 21609l-5832 0c-166,-1046 -1071,-1845 -2163,-1845 -1210,0 -2191,981 -2191,2190 0,2225 1810,4036 4035,4036l6151 0c2881,0 2883,-4381 0,-4381zm43191 9610l-21749 0c-1210,0 -2191,981 -2191,2190l0 44409c0,1210 981,2191 2191,2191l21748 0c1210,0 2191,-981 2191,-2191l0 -44409c0,-1209 -981,-2190 -2190,-2190zm-2191 44409l-17367 0 0 -40029 0 0 17367 0 0 40029zm-29106 -13993c1210,0 2190,-981 2190,-2191l0 -26035c0,-1210 -981,-2190 -2190,-2190l-21748 0c-1210,0 -2191,981 -2191,2190l0 44409c0,1210 981,2191 2191,2191l21748 0c1210,0 2190,-981 2190,-2191l0 -11455c0,-1210 -981,-2191 -2190,-2191 -1210,0 -2191,981 -2191,2191l0 9265 -17367 0 0 -40029 17367 0 0 23844c0,1210 981,2191 2191,2191zm31297 -91173l-11760 0c-2881,0 -2883,4381 0,4381l9569 0 0 10031 -17367 0 0 -10031 1033 0c2881,0 2883,-4381 0,-4381l-3223 0c-1210,0 -2191,981 -2191,2191l0 14412c0,1210 981,2191 2191,2191l21748 0c1210,0 2191,-981 2191,-2190l0 -14412c0,-2110 -2044,-2045 -2191,-2192zm-31297 0l-21748 0c-1210,0 -2190,981 -2190,2191l0 14412c0,1210 981,2191 2190,2191l21748 0c1210,0 2190,-981 2190,-2191l0 -14412c0,-1210 -981,-2191 -2190,-2191zm-2191 14412l-17367 0 0 -10031 17367 0 0 10031z"/>
 </g>
</svg>
