<svg xmlns="http://www.w3.org/2000/svg" xml:space="preserve" width="128px" height="128px" version="1.1" style="shape-rendering:geometricPrecision; text-rendering:geometricPrecision; image-rendering:optimizeQuality; fill-rule:evenodd; clip-rule:evenodd"
viewBox="0 0 128000 128000"
 xmlns:xlink="http://www.w3.org/1999/xlink">
 <g>
  <metadata/>
  <path class="fil0" d="M1406 121222l1625 0 0 -34683 -855 389c-189,86 -392,129 -594,129 -264,0 -526,-72 -755,-215 -405,-252 -651,-688 -651,-1156l0 -5505c0,-532 316,-1017 812,-1242l4840 -2203 0 -8903c0,-757 629,-1371 1405,-1371l8360 0c776,0 1406,614 1406,1371l0 3820 26214 -11928c410,-187 888,-170 1283,47l25242 13825c443,243 717,700 717,1195l0 5505c0,487 -265,937 -696,1183 -431,246 -963,251 -1398,12l-761 -417 0 40147 1391 0c776,0 1406,614 1406,1371 0,757 -629,1371 -1406,1371l-2797 0 -61758 0 -3031 0c-776,0 -1406,-614 -1406,-1371 0,-757 629,-1371 1406,-1371zm119457 -12954l-1515 0 0 -33174 797 372c176,82 366,123 554,123 246,0 490,-69 704,-205 378,-241 607,-658 607,-1106l0 -5266c0,-509 -295,-973 -757,-1188l-4514 -2107 0 -8515c0,-724 -587,-1311 -1311,-1311l-7797 0c-724,0 -1311,587 -1311,1311l0 3654 -24450 -11409c-382,-179 -828,-162 -1196,45l-23543 13223c-246,138 -437,350 -550,598l2503 1406 0 -94 22287 -12518 38017 17741 0 2373 -37518 -17508c-176,-82 -365,-123 -554,-123 -222,0 -443,56 -642,168l-19662 11044 2677 1504 17683 -9932 35354 16498 0 34398 -45708 0 0 2622 47019 0 2826 0c724,0 1311,-587 1311,-1311 0,-724 -587,-1311 -1311,-1311zm-32943 -43931c-1,-19 -4,-38 -6,-58 -3,-22 -6,-44 -10,-65 -4,-23 -9,-45 -14,-67 -4,-18 -9,-35 -14,-53 -7,-24 -14,-48 -22,-72 -5,-16 -11,-32 -17,-47 -9,-24 -19,-47 -29,-70 -7,-16 -15,-32 -23,-48 -10,-21 -21,-42 -33,-62 -10,-17 -20,-35 -31,-52 -11,-18 -23,-35 -35,-52 -13,-19 -27,-37 -41,-55 -11,-14 -23,-28 -35,-42 -16,-19 -33,-37 -50,-55 -12,-12 -24,-25 -37,-37 -18,-17 -36,-33 -54,-49 -15,-12 -29,-24 -44,-36 -17,-14 -35,-27 -54,-40 -18,-13 -37,-26 -56,-38 -16,-10 -32,-20 -48,-29 -23,-13 -47,-26 -71,-38 -9,-5 -18,-10 -26,-14l-4534 -2115c-451,-211 -961,-142 -1335,135 -24,11 -47,22 -70,35l-14104 7922 2676 1504 5041 -2831 0 12878 -1163 0c0,484 -227,1738 -649,1985 -766,448 -1252,267 -2014,331l0 306 15597 0c724,0 1311,-587 1311,-1311l0 -17650c0,-10 -1,-20 -1,-31 -1,-26 -2,-52 -4,-79zm-10455 16449l0 -14351 4678 -2628 3161 1475 0 15504 -7839 0 0 0zm35923 -5291l-20881 -9744c-196,-92 -403,-131 -605,-122 -736,-25 -1355,571 -1355,1310l0 15158c0,724 587,1311 1311,1311l20976 0c724,0 1311,-587 1311,-1311l0 -5414c0,-509 -295,-973 -756,-1188zm-20219 -6542l7866 3671 0 8163 -7866 0 0 -11833zm18353 11834l-7866 0 0 -6939 7866 3671 0 3269zm1311 5206l-20976 0c-724,0 -1311,587 -1311,1311l0 17053c0,724 587,1311 1311,1311l20976 0c724,0 1311,-587 1311,-1311l0 -17053c0,-724 -587,-1311 -1311,-1311zm-19664 2622l7866 0 0 14431 -7866 0 0 -14431zm18353 14431l-7866 0 0 -14431 7866 0 0 14431zm-24908 -17053l-15597 0 0 2622 3825 0 0 14431 -3825 0 0 2622 15597 0c724,0 1311,-587 1311,-1311l0 -17053c0,-724 -587,-1311 -1311,-1311zm-1311 17053l-7838 0 0 -14431 7838 0 0 14431zm23638 -41012l0 -3520 5175 0 0 5982 -5178 -2417c1,-15 2,-30 2,-45zm-72215 13260c2,-20 5,-40 7,-60 3,-23 7,-46 11,-69 4,-24 9,-47 15,-70 5,-19 9,-37 15,-56 7,-26 15,-50 24,-75 6,-17 12,-33 19,-50 10,-25 20,-49 31,-73 8,-17 16,-33 25,-50 11,-22 23,-44 36,-65 11,-18 22,-36 33,-54 12,-18 24,-36 37,-54 14,-20 29,-39 44,-58 12,-15 24,-30 37,-44 17,-20 35,-39 53,-57 13,-13 26,-26 40,-39 19,-18 38,-35 58,-52 16,-13 31,-26 47,-38 18,-14 38,-28 57,-42 20,-14 40,-27 60,-39 17,-10 34,-21 52,-31 25,-14 50,-27 76,-39 10,-5 19,-10 28,-15l4861 -2212c484,-220 1031,-149 1432,141 25,12 50,23 75,37l17346 9500c468,257 727,736 717,1225 0,3 1,7 1,10l0 10993c0,757 -629,1371 -1405,1371l-22431 0c-776,0 -1405,-614 -1405,-1371l0 -18452c0,-11 1,-21 1,-32 1,-27 2,-55 4,-83zm22425 8336l-8404 -4603 0 13464 8404 0 0 -8861zm-11216 8861l0 -15003 -5016 -2747 -3389 1542 0 16208 8404 0 0 0zm-38516 -5532l22387 -10187c210,-96 432,-137 649,-128 790,-26 1453,598 1453,1370l0 15848c0,757 -630,1371 -1406,1371l-22489 0c-776,0 -1406,-614 -1406,-1371l0 -5660c0,-533 316,-1017 811,-1242zm21678 -6839l-8434 3838 0 8534 8434 0 0 -12371zm-19678 12372l8434 0 0 -7255 -8434 3838 0 3417zm-1405 5443l22489 0c776,0 1406,614 1406,1371l0 17828c0,757 -630,1371 -1406,1371l-22489 0c-776,0 -1406,-614 -1406,-1371l0 -17828c0,-757 630,-1371 1406,-1371zm21084 2741l-8434 0 0 15087 8434 0 0 -15087zm-19678 15087l8434 0 0 -15087 -8434 0 0 15087zm26706 -17828l22431 0c776,0 1405,614 1405,1371l0 17828c0,757 -629,1371 -1405,1371l-22431 0c-776,0 -1405,-614 -1405,-1371l0 -17828c0,-757 629,-1371 1405,-1371zm21025 2741l-8404 0 0 15087 8404 0 0 -15087zm-19620 15087l8404 0 0 -15087 -8404 0 0 15087zm-25345 -42877l0 -3680 -5549 0 0 6254 5552 -2526c-1,-16 -3,-31 -3,-47zm53457 2710l-23896 -13087 -40762 18547 0 2481 40227 -18304c189,-86 391,-129 594,-129 238,0 475,59 689,175l23148 12678 0 -2362zm-2855 45628l0 -41641c0,-15 2,-29 2,-44l-21043 -11525 -37906 17249 0 35962 58947 0z"/>
 </g>
</svg>
