<svg xmlns="http://www.w3.org/2000/svg" xml:space="preserve" width="595px" height="842px" version="1.1" style="shape-rendering:geometricPrecision; text-rendering:geometricPrecision; image-rendering:optimizeQuality; fill-rule:evenodd; clip-rule:evenodd"
viewBox="0 0 595000 841500"
 xmlns:xlink="http://www.w3.org/1999/xlink">
 <g>
  <metadata/>
  <path class="fil0" d="M379132 393393l0 16992c0,3832 -3099,6967 -6886,6967l-19193 0c-3787,0 -6886,-3135 -6886,-6967l0 -74198 77800 0 0 5300 -2912 900 0 -3234 -71957 0 0 71233c0,2203 1777,4002 3956,4002l19193 0c2179,0 3956,-1799 3956,-4002l0 -19957 18078 0c2635,0 4779,-2172 4779,-4837l0 -6585 2930 -1284 0 7869c0,4249 -3435,7802 -7709,7802l-15147 0zm-179 -31889l46055 -17629c2325,-891 4941,277 5831,2602l1775 4638 1999 -765c3290,-1259 6992,393 8251,3683l4672 12205c943,2463 254,5297 -1715,7053l-30736 16027c-1040,928 -1405,2427 -906,3729l3135 8191 3355 -1284c1572,-602 3340,188 3941,1759l7571 19778c602,1571 -188,3339 -1760,3941l-9521 3644c-1572,602 -3340,-187 -3941,-1758l-7571 -19778c-602,-1572 188,-3339 1760,-3941l3355 -1284 -3136 -8191c-943,-2464 -254,-5297 1715,-7053l30736 -16027c1041,-929 1405,-2427 906,-3730l-4672 -12204c-666,-1740 -2623,-2613 -4363,-1947l-1998 765 1775 4638c890,2326 -278,4941 -2603,5831 -777,298 -1647,-92 -1944,-868 -297,-777 91,-1646 868,-1944 775,-296 1165,-1168 867,-1944l-4627 -12088c-297,-775 -1168,-1165 -1944,-868l-46056 17630c-775,296 -1164,1169 -868,1944l4627 12088c297,775 1168,1164 1944,868l34029 -13025c777,-298 1646,90 1943,867 298,777 -91,1647 -867,1944l-34029 13026c-2325,890 -4940,-278 -5831,-2603l-4627 -12087c-890,-2326 278,-4941 2603,-5831l-1 -1zm45128 4644c-297,-777 91,-1647 868,-1944 776,-297 1647,91 1944,868 297,776 -91,1646 -868,1944 -777,297 -1647,-91 -1944,-868zm-2634 54310c-297,-777 92,-1647 868,-1944 776,-297 1646,91 1944,868 297,776 -92,1647 -868,1944 -777,297 -1647,-91 -1944,-868zm-9223 -14048c-21,8 -32,32 -24,53l7571 19778c9,22 32,33 54,24l9521 -3644c22,-8 32,-32 23,-54l-7571 -19778c-8,-22 -32,-32 -54,-24l-9521 3645z"/>
 </g>
</svg>
