<svg xmlns="http://www.w3.org/2000/svg" xml:space="preserve" width="595px" height="842px" version="1.1" style="shape-rendering:geometricPrecision; text-rendering:geometricPrecision; image-rendering:optimizeQuality; fill-rule:evenodd; clip-rule:evenodd"
viewBox="0 0 595000 841500"
 xmlns:xlink="http://www.w3.org/1999/xlink">
 <g>
  <metadata/>
  <path class="fil0" d="M256573 375804c-1904,1194 -4262,2653 -2747,5100l1685 3235c-1149,-488 -2164,-1323 -2874,-2464 -1835,-2948 -933,-6824 2016,-8659 2949,-1835 6824,-933 8659,2016 710,1141 1010,2421 940,3667l-2158 -2941c-1025,-1647 -2425,-1715 -3974,-925 -2557,1421 558,-350 -1548,970zm-78901 38123c-611,-1039 -963,-2251 -963,-3542l0 -74198 77800 0 492 1411c-16601,5797 -21085,6271 -23151,23613 -1611,13532 -2502,14172 -15817,17435 -5680,1391 -12512,3066 -18759,6655 -12007,6900 -16808,29836 -16822,29902l-2781 -1275zm1967 -64113l29167 0 0 -10663 -29167 0 0 10663zm32166 -10663l0 10663 18999 0c1596,-4753 4621,-7054 12392,-10663l-31392 0zm18223 13661l-2480 0 0 12445 766 0c185,-1254 360,-2706 561,-4398 388,-3256 715,-5872 1153,-8047zm-2277 15443l-15946 0 0 8383c1133,-301 2307,-599 3526,-898 8796,-2155 11196,-2617 12420,-7485zm-18944 9217l0 -9217 -29167 0 0 12230 20698 0c2515,-1117 5317,-2092 8470,-3013zm-29167 -12215l14699 0 0 -12445 -14699 0 0 12445zm44910 -12445l-27213 0 0 12445 27213 0 0 -12445zm-44910 43457l4356 0c2011,-3964 4231,-7070 6854,-9593 1229,-1183 2547,-2237 3975,-3193l-15186 0 0 12786zm2944 2998l-2944 0 0 7776c956,-2877 1928,-5455 2944,-7776zm73842 -41087c547,-340 1235,-263 1692,145 2827,1939 5747,3953 8037,5576 1038,596 2008,1298 2896,2101 532,399 946,721 1212,946 524,444 834,899 899,1360 4552,5965 4512,14171 203,20082l12703 17310c840,1350 425,3133 -926,3974l-8183 5092c-1350,841 -3133,426 -3973,-924l-9833 -18875c-7356,1516 -14929,-2067 -18379,-8844l-506 -821c-255,-414 -422,-1220 -537,-1707 -330,-1030 -560,-2103 -684,-3176 -724,-3541 -1675,-8577 -2464,-12969 -772,-4303 -1395,-8030 -1509,-9203 -324,-3283 -727,-6632 2589,-8565 3168,-1845 4996,-697 8311,1670l5 3 28 20 29 20 -2 1c128,100 241,223 331,368 413,665 210,1539 -454,1952 -552,343 -1248,262 -1705,-157 -2249,-1600 -3516,-2360 -5114,-1428 -1680,979 -1455,3287 -1224,5657l18 180c105,1078 717,4723 1480,8976 785,4370 1599,8742 2488,13091 108,932 293,1818 580,2712l84 350c369,866 686,1622 1158,2432 2890,4959 8507,7620 14105,6803l-2545 -4884c-2842,-232 -5457,-1787 -7004,-4273 -2661,-4277 -1352,-9903 2925,-12564 4276,-2661 9903,-1351 12564,2925 1539,2473 1795,5500 740,8171l3126 4260c2971,-4690 2920,-10810 -351,-15494 -442,-634 -939,-1215 -1430,-1810l30 -36c-220,-171 -442,-338 -664,-504 -798,-719 -1618,-1308 -2551,-1840 -2737,-1937 -5498,-3842 -8264,-5737 -3,-2 -4,-5 -5,-8 -147,-105 -277,-241 -378,-404 -413,-664 -210,-1539 454,-1952zm19911 46985c-416,-668 -1293,-871 -1960,-456 -667,415 -872,1293 -456,1960 415,667 1292,872 1959,456 668,-416 872,-1293 457,-1960zm-16659 -27903l21973 29942c14,-7 -5557,3450 -8195,5146 -284,177 -15713,-30045 -17213,-32951 -35,-56 3399,-2195 3435,-2137zm-7673 -22099c664,-414 1539,-210 1952,455 413,664 210,1539 -454,1952 -665,414 -1539,210 -1953,-454 -413,-665 -210,-1539 455,-1952z"/>
 </g>
</svg>
