<svg xmlns="http://www.w3.org/2000/svg" xml:space="preserve" width="595px" height="842px" version="1.1" style="shape-rendering:geometricPrecision; text-rendering:geometricPrecision; image-rendering:optimizeQuality; fill-rule:evenodd; clip-rule:evenodd"
viewBox="0 0 595000 841500"
 xmlns:xlink="http://www.w3.org/1999/xlink">
 <g>
  <metadata/>
  <path class="fil0" d="M33495 363018l12369 0c1,-3521 2882,-6403 6403,-6403l3556 0c339,-1874 1993,-3266 3909,-3266l6783 0c1916,0 3570,1392 3909,3266l1600 0 0 -870c0,-5032 4113,-9145 9145,-9145l27830 0 1 24 4724 0c823,0 1489,666 1489,1489 0,823 -666,1489 -1489,1489l-7916 0 -1 -3 -9263 0c-417,3936 -3756,7053 -7853,7053 -4065,0 -7425,-3077 -7850,-7044 -3227,173 -5818,2871 -5818,6138l0 16493c0,3377 2769,6147 6146,6147l21408 -30 -20 -69 3114 0 19 65 5998 -8 2196 3041 2748 18864c231,1583 1764,2949 3372,2949l11618 0c1441,0 2343,-1111 2137,-2522l-5666 -37245 6 -7685 -132 -4067 0 -9 -17 0 0 -579c0,-821 -668,-1489 -1489,-1489 -823,0 -1489,-666 -1489,-1489 0,-823 666,-1489 1489,-1489 2450,0 4446,1983 4466,4429l1 3c209,1518 170,3694 170,4689l262 7685 5362 36812 1 0c468,3207 -1840,5954 -5101,5954l-11618 0c-3088,0 -5892,-2483 -6335,-5526l-672 -4610 -1620 0c-2054,0 -4061,-1597 -4636,-3551l-3274 -11125 -22299 0c-2651,0 -5047,-1142 -6721,-2959l0 2655 1883 0c1128,0 2156,464 2904,1210l3 -3c745,745 1208,1775 1208,2907l0 2394c0,924 -734,1686 -1657,1720l0 17280c0,2188 -1785,3973 -3973,3973l-6783 0c-2188,0 -3973,-1785 -3973,-3973l0 -17279c-744,0 -1344,80 -1930,-507l-3 3c-311,-311 -505,-741 -505,-1217l0 -2394c0,-1133 463,-2162 1208,-2907l3 3c748,-747 1776,-1210 2904,-1210l1750 0 0 -5861c-312,80 -638,122 -974,122l-6783 0c-1461,0 -2814,-823 -3500,-2097l-3966 0c-3522,0 -6403,-2882 -6403,-6403l-12369 0c-574,0 -1050,-472 -1050,-1050l0 -1724c0,-577 472,-1050 1050,-1050zm84236 -14906c0,823 666,1489 1489,1489 822,0 1489,-666 1489,-1489 0,-822 -666,-1489 -1489,-1489 -823,0 -1489,666 -1489,1489zm-58971 9197l0 14072c3,262 113,500 287,674l-3 3c177,175 421,284 690,284l6783 0c269,0 513,-109 690,-284l-3 -3c174,-174 284,-413 287,-674l0 -14072c-3,-262 -113,-500 -287,-674l3 -3c-177,-175 -421,-284 -690,-284l-6783 0c-269,0 -513,109 -690,284l3 3c-174,174 -284,413 -287,674zm-14471 17632c286,-870 -187,-1805 -1056,-2091 -869,-286 -1805,187 -2091,1056 -286,869 187,1805 1056,2091 870,286 1805,-187 2091,-1056zm5945 7092c501,-1523 -327,-3161 -1850,-3662 -1521,-500 -3161,327 -3662,1850 -500,1521 327,3161 1850,3662 1523,501 3161,-327 3662,-1849zm-8417 -1578l-6193 -5596c-277,-250 -717,-226 -965,49l-753 833c-249,275 -228,715 49,966l6193 5596c277,250 713,230 965,-49l753 -833c252,-279 228,-715 -49,-966zm-7861 -24430l6192 -5596c279,-252 715,-228 965,49l753 832c250,277 226,717 -49,966l-6192 5596c-275,249 -714,230 -965,-49l-753 -832c-252,-279 -230,-713 49,-966zm12592 39591c1335,-887 1698,-2686 812,-4021 -886,-1334 -2687,-1698 -4021,-811 -1334,886 -1698,2686 -811,4021 887,1335 2686,1698 4021,811zm-32724 17247c-1120,-1238 -1812,-2892 -1812,-4698l0 -74198 77800 0 340 1458c-9,2 -3264,772 -12249,3584 -8138,2547 -8888,8081 -8891,8097l-37761 -133 282 33196c14,1649 41,-585 2,2016l86 71 -90 191 -85 0c-683,746 -3398,3732 -8691,9800 -4114,4716 -5855,13917 -6520,18876l78 77 -150 4000c-744,-662 -1525,-1438 -2340,-2338zm30542 -68889l0 -7042 -29424 0 0 11822 13419 0 -40 -4744 16045 -36zm2999 -7042l0 7035 19642 -44c1075,-2127 3310,-5033 7888,-6992l-27530 0zm-18978 14821l-13444 0 0 26827 13672 0 -228 -26827zm-432 29826l-13013 0 0 17763c1508,-3420 3561,-6765 5564,-9062 3777,-4330 6171,-7167 7449,-8701zm54902 -31981c410,2865 2872,5054 5837,5054 2999,0 5429,-2220 5837,-5054l-11673 0zm-7064 39712l-8731 0 0 17279c0,533 441,974 974,974l6783 0c533,0 974,-441 974,-974l0 -17279zm1657 -3349l0 -766c0,-616 -501,-1116 -1116,-1116l-10593 0c-615,0 -1115,501 -1115,1116l0 766 12825 0zm-5998 -26347l-962 0 0 19877 962 0 0 -19877zm35134 21770l3028 10282c204,693 1030,1395 1767,1395l1183 0 -1701 -11677 -4277 0zm1050 -19815l12326 0c1264,0 2296,1032 2296,2296l0 2129c0,1264 -1032,2296 -2296,2296l-12326 0c-1264,0 -2296,-1032 -2296,-2296l0 -2129c0,-1264 1032,-2296 2296,-2296zm0 -8920l12326 0c1264,0 2296,1032 2296,2296l0 2129c0,1264 -1032,2296 -2296,2296l-12326 0c-1264,0 -2296,-1032 -2296,-2296l0 -2129c0,-1264 1032,-2296 2296,-2296zm12326 1999l-12326 0c-161,0 -297,135 -297,297l0 2129c0,161 211,297 372,297l12251 0c662,0 313,-1970 297,-2426 0,-161 -135,-297 -297,-297zm0 8920l-12326 0c-161,0 -297,135 -297,297l0 2129c0,161 135,297 297,297l12326 0c392,0 208,-1561 222,-1946 0,-161 -60,-777 -222,-777zm-64201 -3955l-3493 0c-935,0 -1786,384 -2404,1001l-3 -3c-615,617 -998,1469 -998,2407l0 3822c0,938 383,1790 998,2407l3 -3c617,617 1469,1001 2404,1001l3493 0 0 -10632z"/>
 </g>
</svg>
