<svg xmlns="http://www.w3.org/2000/svg" xml:space="preserve" width="595px" height="842px" version="1.1" style="shape-rendering:geometricPrecision; text-rendering:geometricPrecision; image-rendering:optimizeQuality; fill-rule:evenodd; clip-rule:evenodd"
viewBox="0 0 595000 841500"
 xmlns:xlink="http://www.w3.org/1999/xlink">
 <g>
  <metadata/>
  <path class="fil0" d="M285956 521207c0,-2526 2544,-2016 2544,-432l0 23031c0,2498 -2524,4532 -5625,4532 -3102,0 -5626,-2033 -5626,-4532l0 -36251c0,-436 4043,-8317 4580,-9400 379,-755 1712,-755 2090,0l4500 9063c53,108 80,222 80,337l-1 2515c0,1720 -2544,1720 -2544,0l0 -1609 -6162 0 0 29001 6162 0 1 -16255zm-46824 -43081c-3,826 -672,1494 -1499,1494 -827,0 -1499,-672 -1499,-1499 0,-1160 33,-2338 33,-3505l-29167 0 0 10663 11710 0c2103,-476 2539,2847 415,2959l-1922 39 0 39389c0,157 32,257 -55,381 -6559,9385 -9323,22570 -9334,22620 -2616,-1199 -3744,-1395 -3744,-4817l0 -74198 77800 0 492 1411c-12549,4382 -18433,5640 -21065,13609l-481 1456 -5657 48c-2180,661 -2695,-2935 -434,-2935 1136,0 2295,38 3441,38 1596,-4753 4621,-7054 12392,-10663l-31392 0 0 3509 -32 2zm-24930 48770l0 -7949 -7204 0 0 12786 4356 0c902,-1777 1845,-3381 2848,-4837zm0 -10947l0 -12230 -7204 0 0 12230 7204 0zm0 -15228l0 -12445 -7204 0 0 12445 7204 0zm-4259 34010l-2944 0 0 7776c956,-2877 1928,-5455 2944,-7776zm26847 -30744l0 16036c35,188 0,467 0,673l-109 0c-381,694 -1398,711 -1786,0l-132 -16793c-3435,-266 -6310,-1194 -8108,-2545l0 45225c0,1146 1562,2370 4054,3170l0 -17693 43 0c283,-969 1675,-978 1956,0 65,0 38,386 27,451l0 17757c1988,377 4066,457 6081,279l0 -18486 50 0c283,-969 1675,-978 1956,0 60,0 183,427 171,486l-150 17722c3653,-694 6081,-2253 6081,-3685l0 -45225c-3468,1963 -6106,2629 -10135,2629zm37501 -5054c-233,0 -442,9 -629,27l-1813 -19c-1673,0 -1673,2544 0,2544l1270 1 -66 43070 -23100 0 0 -30461 20284 0c561,0 1013,-454 1013,-1013l0 -6081c0,-559 -453,-1013 -1013,-1013l-20284 0 1 -4500 11480 0c1673,0 1673,-2544 0,-2544l-11481 -9 0 -2027c0,-3466 -6229,-6456 -13162,-6456 -6933,0 -13162,2990 -13162,6456l0 50676c0,7957 26324,7957 26324,0l24339 0c561,0 1013,-453 1013,-1013l0 -46623c0,-559 -453,-1013 -1013,-1013l0 0zm-9436 1281c0,703 570,1272 1272,1272 702,0 1272,-570 1272,-1272 0,-702 -569,-1272 -1272,-1272 -703,0 -1272,569 -1272,1272zm-14902 7799l19271 0 0 4054 -19271 0 0 -4054zm-13162 -15161c13281,0 13282,8108 0,8108 -13282,0 -13281,-8108 0,-8108zm28583 35456c1329,0 1351,2038 0,2038l-13320 0c-1331,0 -1349,-2041 0,-2038l13320 0zm-5059 -4836c1329,0 1352,2038 0,2038l-8261 0c-422,0 -800,-260 -951,-655 -257,-671 245,-1385 951,-1383l8261 0zm5059 -4725c1329,0 1352,2038 0,2038l-13320 0c-1520,-821 -1144,-2041 0,-2038l13320 0zm20877 20527c0,2229 0,2825 0,4531 0,1499 -1515,1720 -3375,1720 -1861,0 -3375,-220 -3375,-1720 0,-1529 0,-2931 0,-4531l6750 0zm-6213 -32627l900 -1812 3877 0 900 1812 -5677 0zm2838 -5717l1038 2092 -2077 0 1038 -2092zm5624 15020c0,-722 -569,-1308 -1272,-1308 -702,0 -1272,585 -1272,1308 0,1720 2544,1720 2544,0z"/>
 </g>
</svg>
