<?xml-stylesheet href="measuring-tape.css" type="text/css"?>
<svg xmlns="http://www.w3.org/2000/svg" xml:space="preserve" width="128px" height="128px" version="1.1" style="shape-rendering:geometricPrecision; text-rendering:geometricPrecision; image-rendering:optimizeQuality; fill-rule:evenodd; clip-rule:evenodd"
viewBox="0 0 128000 128000"
 xmlns:xlink="http://www.w3.org/1999/xlink">
 <g>
  <metadata/>
  <path class="fil0" d="M70044 66819c0,-16116 -13084,-29228 -29166,-29228 -16082,0 -29166,13112 -29166,29228 0,16116 13084,29228 29166,29228 16082,0 29166,-13111 29166,-29228zm45856 12058l0 4821 -34143 0 0 -13919c4455,-2416 9269,-4370 8672,-10592 -217,-2258 -591,-4517 -1112,-6715 -569,-2399 -4218,-1536 -3649,865 482,2032 828,4120 1028,6208 336,3503 -2432,4609 -4939,5968l0 -1602c0,-7192 -1869,-13955 -5144,-19832l4355 -2732c914,1619 1733,3295 2449,5024 943,2278 4408,844 3465,-1435 -2322,-5607 -5619,-10702 -9797,-15141 -2671,-2838 -6918,-3529 -10326,-1680l-3256 1766c-6483,-4324 -14263,-6848 -22623,-6848 -22542,0 -40880,18338 -40880,40879l0 8540c0,2466 3750,2466 3750,0l0 -8540c0,-20473 16656,-37129 37129,-37129 8143,0 15680,2637 21808,7099 9570,6979 15321,18172 15321,30119l0 4663 0 32555 -56181 0c-9967,0 -18077,-8109 -18077,-18076l0 -3116c0,-2466 -3750,-2466 -3750,0l0 3116c0,12035 9791,21826 21826,21826l104298 0c1036,0 1875,-840 1875,-1875l0 -24215c0,-7967 -12100,-7967 -12100,0zm-49074 -46534l1720 -933c1914,-1038 4302,-646 5807,954 1709,1816 3258,3751 4641,5793l-4355 2732c-2171,-3174 -4836,-6090 -7814,-8546zm49074 68874l-34143 0 0 -13770 3621 0 0 7082c0,2466 3750,2466 3750,0l0 -7082 7161 0 0 4042c0,2466 3750,2466 3750,0l0 -4042 7684 0 0 7082c0,2466 3750,2466 3750,0l0 -7082 4427 0 0 13770zm8349 0l-4599 0 0 -22340c0,-3036 4599,-3036 4599,0l0 22340zm-62173 -34398c0,-11713 -9510,-21243 -21199,-21243 -11689,0 -21199,9530 -21199,21243 0,11713 9510,21243 21199,21243 11689,0 21199,-9530 21199,-21243zm-21199 17493c-9621,0 -17449,-7847 -17449,-17493 0,-9645 7828,-17493 17449,-17493 9621,0 17449,7847 17449,17493 0,9645 -7828,17493 -17449,17493zm-25415 -17493c0,-14048 11401,-25478 25416,-25478 14014,0 25415,11429 25415,25478 0,14048 -11401,25478 -25415,25478 -14014,0 -25416,-11429 -25416,-25478z"/>
 </g>
</svg>
