<svg xmlns="http://www.w3.org/2000/svg" xml:space="preserve" width="128px" height="128px" version="1.1" style="shape-rendering:geometricPrecision; text-rendering:geometricPrecision; image-rendering:optimizeQuality; fill-rule:evenodd; clip-rule:evenodd"
viewBox="0 0 128000 128000"
 xmlns:xlink="http://www.w3.org/1999/xlink">
 <g>
  <metadata/>
  <path class="fil0" d="M113128 0l-85734 0c-3655,0 -6629,2974 -6629,6629l0 7291 -3142 0c-5172,0 -9380,4208 -9380,9380l0 19186c0,3872 2433,7396 6053,8770l50554 19177c1914,726 3201,2590 3201,4637l0 12877 -5274 0c-2471,0 -4481,2010 -4481,4480l0 31092c0,2470 2010,4480 4481,4480l14967 0c2471,0 4481,-2010 4481,-4480l0 -31092c0,-2471 -2010,-4480 -4481,-4480l-5274 0 0 -12877c0,-3873 -2432,-7396 -6053,-8770l-50554 -19177c-1915,-727 -3201,-2590 -3201,-4638l0 -19185c0,-2735 2225,-4960 4960,-4960l3142 0 0 7292c0,3656 2974,6629 6629,6629 1221,0 2210,-989 2210,-2210 0,-1221 -989,-2210 -2210,-2210 -1219,0 -2210,-991 -2210,-2210l0 -19002c0,-1219 991,-2210 2210,-2210l85734 0c1218,0 2210,991 2210,2210l0 19002c0,1219 -991,2210 -2210,2210l-66827 0c-1221,0 -2210,989 -2210,2210 0,1221 989,2210 2210,2210l66827 0c3655,0 6629,-2974 6629,-6629l0 -19002c0,-3655 -2974,-6629 -6629,-6629zm-72772 30053c0,-1221 -989,-2210 -2210,-2210 -1220,0 -2210,989 -2210,2210 0,1220 989,2210 2210,2210 1221,0 2210,-989 2210,-2210zm32115 86417c0,-1221 -989,-2210 -2210,-2210 -1220,0 -2210,989 -2210,2210 0,1220 989,2210 2210,2210 1221,0 2210,-989 2210,-2210zm5273 -24103c33,0 61,27 61,61l0 31092c0,33 -27,61 -61,61l-14967 0c-34,0 -61,-27 -61,-61l0 -31092c0,-34 27,-61 61,-61l14967 0z"/>
 </g>
</svg>
