<svg xmlns="http://www.w3.org/2000/svg" xml:space="preserve" width="128px" height="128px" version="1.1" style="shape-rendering:geometricPrecision; text-rendering:geometricPrecision; image-rendering:optimizeQuality; fill-rule:evenodd; clip-rule:evenodd"
viewBox="0 0 128000 128000"
 xmlns:xlink="http://www.w3.org/1999/xlink">
 <g>
  <metadata/>
  <path class="fil0" d="M59440 96904c563,39 1107,87 1629,146l62372 -90197c614,-888 1944,-1613 2956,-1613l478 0c1013,0 1339,726 725,1613l-62841 90875c1558,444 2496,1014 2496,1636 0,1414 -4842,2561 -10815,2561 -5973,0 -10815,-1146 -10815,-2561 0,-1168 3300,-2153 7812,-2460l0 -8478 -3965 0c-1098,0 -1997,-899 -1997,-1997l0 -2784c0,-1099 899,-1997 1997,-1997l13934 0c1099,0 1997,899 1997,1997l0 2784c0,1098 -899,1997 -1997,1997l-3967 0 0 8477zm1318 -6814c1196,56 2369,133 3516,228l-1394 2032c-699,-48 -1406,-90 -2123,-124l0 -2136zm9963 1002c2640,423 5052,956 7167,1577 6049,1775 9792,4388 9792,7416 0,3028 -3743,5641 -9792,7416 -5672,1665 -13484,2695 -22088,2695 -8605,0 -16416,-1030 -22089,-2695 -6049,-1775 -9792,-4388 -9792,-7416 0,-3028 3743,-5641 9792,-7416 4778,-1402 11074,-2354 18083,-2619l0 2135c-6805,261 -12888,1178 -17483,2527 -5102,1497 -8258,3408 -8258,5374 0,1966 3156,3877 8258,5374 5479,1608 13075,2603 21488,2603 8413,0 16009,-995 21488,-2603 5102,-1497 8258,-3408 8258,-5374 0,-1966 -3156,-3877 -8258,-5374 -2295,-674 -4961,-1239 -7903,-1670l1337 -1949zm-2754 4016c904,155 1753,327 2541,513 4213,998 6818,2565 6818,4464 0,1900 -2604,3467 -6814,4464l-4 0c-3778,894 -8980,1448 -14710,1448 -5729,0 -10931,-554 -14710,-1448l-4 0c-4209,-997 -6814,-2564 -6814,-4464 0,-1899 2606,-3466 6818,-4464 2875,-681 6575,-1164 10704,-1356l0 2136c-3958,188 -7487,649 -10221,1296 -3192,756 -5167,1612 -5167,2388 0,775 1977,1631 5171,2388l0 1c3627,858 8654,1389 14223,1389 5568,0 10596,-531 14222,-1389l0 -1c3195,-757 5172,-1613 5172,-2388 0,-776 -1975,-1632 -5168,-2388 -1025,-243 -2162,-459 -3392,-645l1334 -1945zm-15212 -40031l7363 0c2906,0 5282,2378 5282,5283l0 14079c0,2905 -2378,5283 -5282,5283l-7363 0c-2905,0 -5282,-2377 -5282,-5283l0 -14079c0,-2906 2377,-5283 5282,-5283z"/>
  <path class="fil0" d="M8477 116197l110917 0c362,0 658,291 658,646l0 1094c0,355 -296,646 -658,646l-110917 0c-362,0 -658,-291 -658,-646l0 -1094c0,-355 296,-646 658,-646z"/>
  <path class="fil0" d="M8477 112297l110917 0c362,0 658,291 658,646l0 1094c0,355 -296,646 -658,646l-110917 0c-362,0 -658,-291 -658,-646l0 -1094c0,-355 296,-646 658,-646z"/>
 </g>
</svg>
