<svg xmlns="http://www.w3.org/2000/svg" xml:space="preserve" width="128px" height="128px" version="1.1" style="shape-rendering:geometricPrecision; text-rendering:geometricPrecision; image-rendering:optimizeQuality; fill-rule:evenodd; clip-rule:evenodd"
viewBox="0 0 128000 128000"
 xmlns:xlink="http://www.w3.org/1999/xlink">
 <g>
  <metadata/>
  <g id="_620981504">
   <path class="fil0" d="M42667 104533c-4706,0 -8533,3827 -8533,8533 0,4706 3827,8533 8533,8533 4706,0 8533,-3827 8533,-8533 0,-4706 -3827,-8533 -8533,-8533zm0 12800c-2353,0 -4267,-1913 -4267,-4267 0,-2353 1914,-4266 4267,-4266 2353,0 4267,1913 4267,4266 0,2353 -1914,4267 -4267,4267z"/>
   <path class="fil0" d="M36267 10667l8533 0c1178,0 2133,-954 2133,-2133 0,-1180 -956,-2133 -2133,-2133l-8533 0c-1178,0 -2133,954 -2133,2133 0,1180 956,2133 2133,2133z"/>
   <path class="fil0" d="M51200 10667l2133 0c1178,0 2133,-954 2133,-2133 0,-1180 -956,-2133 -2133,-2133l-2133 0c-1178,0 -2133,954 -2133,2133 0,1180 956,2133 2133,2133z"/>
   <path class="fil0" d="M119467 25600l-38400 0 0 -16203c0,-5180 -4215,-9397 -9397,-9397l-53739 0c-5182,0 -9397,4218 -9397,9397l0 109203c0,5182 4215,9399 9397,9399l53736 0c5184,0 9399,-4218 9399,-9397l0 -48203 38400 0 0 -44800zm-101536 -21333l53736 0c2831,0 5133,2302 5133,5131l0 3403 -64000 0 0 -3403c0,-2829 2302,-5131 5131,-5131zm53739 119467l-53739 0c-2829,0 -5131,-2302 -5131,-5131l0 -16203 64000 0 0 16203c0,2829 -2302,5131 -5131,5131zm5131 -25600l-64000 0 0 -81067 64000 0 0 8533 -38400 0 0 44800 8533 0 0 14933 19910 -14933 9956 0 0 27733zm38400 -32000l-34133 0 -15644 0 -14223 10667 0 -10667 -8533 0 0 -36267 38400 0 34133 0 0 36267z"/>
   <path class="fil0" d="M53333 44800l21334 0c1178,0 2133,-954 2133,-2133 0,-1180 -956,-2133 -2133,-2133l-21334 0c-1178,0 -2133,954 -2133,2133 0,1180 956,2133 2133,2133z"/>
   <path class="fil0" d="M51200 53333c0,1180 956,2133 2133,2133l51200 0c1178,0 2133,-954 2133,-2133 0,-1180 -956,-2133 -2133,-2133l-51200 0c-1178,0 -2133,954 -2133,2133z"/>
  </g>
  <g id="_620982304">
  </g>
  <g id="_620979776">
  </g>
  <g id="_620978720">
  </g>
  <g id="_620980224">
  </g>
  <g id="_620978624">
  </g>
  <g id="_620980192">
  </g>
  <g id="_620979392">
  </g>
  <g id="_620978528">
  </g>
  <g id="_620978496">
  </g>
  <g id="_620979744">
  </g>
  <g id="_620977376">
  </g>
  <g id="_620978080">
  </g>
  <g id="_620978048">
  </g>
  <g id="_620978240">
  </g>
  <g id="_620977792">
  </g>
 </g>
</svg>
