<svg xmlns="http://www.w3.org/2000/svg" xml:space="preserve" width="128px" height="128px" version="1.1" style="shape-rendering:geometricPrecision; text-rendering:geometricPrecision; image-rendering:optimizeQuality; fill-rule:evenodd; clip-rule:evenodd"
viewBox="0 0 128000 128000"
 xmlns:xlink="http://www.w3.org/1999/xlink">
 <g>
  <metadata/>
  <path class="fil0" d="M38460 47656c508,2077 950,4114 1344,6092 197,998 1072,1718 2089,1719 140,0 279,-13 417,-41 1155,-229 1906,-1352 1677,-2507 -402,-2038 -860,-4135 -1381,-6275 -179,-742 -742,-1331 -1475,-1546 -732,-215 -1524,-21 -2075,507 -551,527 -778,1310 -596,2051l0 0zm34073 29144l4267 0 0 4266 -4267 0 0 -4267zm-17067 -8533l8533 0 0 4267 -8533 0 0 -4267zm12800 12800l0 -4267 -12800 0 0 4266 12800 0zm-8533 -72533l4267 0 0 4266 -4267 0 0 -4267zm-17067 0l12800 0 0 4266 -12800 0 0 -4267zm81067 27733l0 -8533c0,-1178 -955,-2133 -2133,-2133l-12800 0c-1178,0 -2133,955 -2133,2133l0 8533c0,1178 955,2133 2133,2133l12800 0c1178,0 2133,-955 2133,-2133zm-4267 -2133l-8533 0 0 -4267 8533 0 0 4267zm-14933 21333c-1178,0 -2133,955 -2133,2133l0 8533c0,1178 955,2133 2133,2133l8533 0c1178,0 2133,-955 2133,-2133l0 -8533c0,-1178 -955,-2133 -2133,-2133l-8533 0zm6400 8533l-4267 0 0 -4267 4267 0 0 4267zm17067 -49067l0 -12800c0,-1178 -955,-2133 -2133,-2133l-8533 0c-1178,0 -2133,955 -2133,2133l0 12800c0,1178 955,2133 2133,2133l8533 0c1178,0 2133,-955 2133,-2133l0 0zm-4267 -2133l-4267 0 0 -8533 4267 0 0 8533zm-123650 66654c47,178 117,349 208,509 32,57 51,119 88,174 146,210 327,393 537,538 12,9 19,24 32,32 98,56 201,105 307,145 66,39 132,73 201,104l19875 6625 0 6284 -2133 0c-1178,0 -2133,955 -2133,2133l0 21333c0,5891 4776,10667 10667,10667 5891,0 10667,-4776 10667,-10667l0 -21333c0,-1178 -955,-2133 -2133,-2133l-2133 0 0 -4267 85333 0c4713,0 8533,-3821 8533,-8533 0,-4713 -3821,-8533 -8533,-8533l-21333 0 0 -14933c0,-1178 -955,-2133 -2133,-2133l-2133 0 0 -10666c0,-1178 -955,-2133 -2133,-2133l-14933 0 0 -4267 19200 0c3534,0 6400,-2866 6400,-6400 0,-3535 -2866,-6400 -6400,-6400l-14933 0 0 -8533 21333 0c4712,0 8533,-3821 8533,-8533 0,-4713 -3821,-8533 -8533,-8533l-74667 0c-287,6 -569,71 -829,190l-48 23c-232,104 -443,249 -623,428 -20,20 -48,26 -67,46l-50 56 -12 16c-25805,28034 -26104,76140 -26104,78175 28,174 55,347 83,521l0 0zm11865 502l8987 -12583c685,-958 463,-2291 -496,-2975 -958,-685 -2290,-463 -2975,496l-9751 13651 -2256 -752 6984 -10476c431,-634 490,-1451 152,-2140 -338,-690 -1020,-1144 -1786,-1191 -766,-47 -1497,321 -1917,963l-4238 6356c1135,-14297 5594,-45520 23072,-65952 73,86 150,169 223,254 335,397 658,802 984,1205 308,382 619,763 919,1152 319,412 626,834 935,1254 290,394 580,785 861,1184 303,429 596,865 889,1301 270,401 541,801 803,1207 287,445 566,896 844,1348 252,407 505,816 749,1228 270,455 531,915 792,1375 237,417 474,834 703,1255 254,467 502,937 748,1408 219,421 439,843 651,1266 240,478 473,958 704,1439 203,423 406,847 603,1272 225,485 444,974 662,1462 189,426 377,853 560,1282 209,491 415,981 616,1474 175,428 348,855 518,1284 196,496 389,993 576,1490 162,427 321,854 477,1282 183,498 361,997 534,1495 149,426 295,851 439,1276 170,503 335,1005 498,1506 135,418 268,834 397,1251 158,507 314,1015 466,1521 122,410 242,820 359,1228 145,505 287,1008 427,1510 113,409 223,817 330,1223 132,498 262,995 389,1489 102,402 202,803 299,1202 122,496 242,991 357,1482 91,387 178,773 266,1159 111,493 222,984 327,1472 81,380 159,756 238,1132 101,482 200,963 295,1439 73,368 141,730 211,1093 90,477 182,954 268,1424 63,352 124,698 185,1046 81,463 162,927 238,1381 57,347 111,687 166,1029 71,444 143,889 208,1323 51,333 97,657 145,982 63,431 126,862 184,1283 44,318 83,625 124,937 55,409 109,822 159,1221 37,302 72,594 107,890 47,395 95,791 139,1174 31,276 58,541 88,810 41,376 82,756 119,1119 27,268 50,522 75,782 33,347 68,697 98,1029 23,255 42,495 62,742 27,311 55,629 78,926 19,242 34,464 52,695 21,284 44,577 62,846 15,220 27,420 41,630 16,249 33,506 47,740 14,231 25,437 36,651 10,190 22,393 31,571 10,200 18,374 26,559 7,164 16,343 22,494 14,318 24,608 32,867l-17033 5677 0 -8418c0,-1178 -955,-2133 -2133,-2133l-8533 0c-1178,0 -2133,955 -2133,2133l0 8417 -9385 -3128zm22185 37377c0,3535 -2866,6400 -6400,6400 -3534,0 -6400,-2866 -6400,-6400l0 -19200 12800 0 0 19200zm-8533 -23467l0 -17067 4267 0 0 17067 -4267 0zm76800 -89600c2356,0 4267,1910 4267,4267 0,2356 -1911,4266 -4267,4266l-23467 0c-1178,0 -2133,955 -2133,2133l0 12800c0,1178 955,2133 2133,2133l17067 0c1178,0 2133,955 2133,2133 0,1178 -955,2133 -2133,2133l-21333 0c-1178,0 -2133,955 -2133,2133l0 8533c0,1178 955,2133 2133,2133l14933 0 0 10667c0,1178 955,2133 2133,2133l2133 0 0 14933c0,1178 955,2133 2133,2133l23467 0c2356,0 4267,1910 4267,4266 0,2356 -1910,4267 -4267,4267l-78587 0 13129 -4376c871,-291 1458,-1106 1458,-2024 0,-125 -1,-425 -9,-879 -1,-77 -4,-176 -5,-261 -4,-169 -7,-333 -12,-535 -3,-119 -8,-262 -12,-392 -6,-204 -12,-403 -21,-634 -5,-148 -12,-314 -19,-474 -10,-252 -21,-502 -33,-781 -9,-164 -18,-346 -27,-521 -14,-302 -31,-605 -50,-933 -10,-190 -24,-392 -37,-590 -21,-342 -42,-685 -68,-1051 -14,-215 -31,-440 -48,-662 -28,-382 -57,-769 -90,-1174 -19,-230 -39,-468 -59,-705 -35,-419 -73,-844 -115,-1284 -24,-259 -50,-524 -76,-790 -44,-445 -90,-896 -139,-1360 -30,-278 -60,-559 -93,-845 -53,-478 -109,-964 -170,-1460 -35,-294 -72,-590 -109,-890 -63,-508 -131,-1024 -202,-1549 -43,-310 -85,-623 -130,-940 -74,-528 -153,-1064 -234,-1606 -50,-331 -101,-662 -153,-998 -88,-554 -178,-1115 -274,-1682 -57,-340 -113,-677 -174,-1021 -101,-580 -208,-1168 -318,-1759 -64,-346 -127,-690 -195,-1040 -117,-609 -242,-1226 -368,-1846 -71,-344 -138,-684 -212,-1031 -135,-641 -280,-1289 -426,-1941 -76,-338 -150,-673 -228,-1013 -155,-669 -321,-1344 -488,-2021 -82,-333 -162,-664 -246,-999 -179,-703 -370,-1412 -561,-2122 -86,-314 -166,-625 -253,-940 -209,-752 -432,-1509 -657,-2268 -83,-279 -160,-556 -246,-837 -251,-826 -517,-1655 -787,-2485 -70,-215 -135,-427 -205,-641 -331,-998 -677,-1997 -1037,-2997 -18,-48 -32,-96 -50,-143 -771,-2131 -1610,-4264 -2525,-6381l-23 -51c-442,-1022 -901,-2040 -1379,-3054l-5 -14 21104 0 0 -4266 -21333 0 0 3799c-32,-69 -68,-136 -101,-204 -383,-799 -771,-1595 -1177,-2385 -163,-316 -336,-626 -502,-940 -370,-700 -740,-1399 -1129,-2091 -200,-356 -412,-707 -618,-1060 -372,-641 -744,-1280 -1132,-1911 -234,-381 -480,-754 -721,-1131 -380,-597 -761,-1193 -1158,-1781 -261,-387 -534,-767 -802,-1149 -397,-565 -794,-1129 -1205,-1683 -291,-391 -592,-774 -890,-1159 -283,-367 -555,-742 -846,-1103l70015 0zm-66038 35770c351,1123 1544,1750 2668,1401 1123,-348 1753,-1539 1407,-2663 -1714,-5626 -3899,-11097 -6536,-16354 -344,-681 -1026,-1127 -1788,-1169 -763,-42 -1490,328 -1905,968 -417,641 -458,1454 -111,2134 2527,5041 4623,10288 6265,15683z"/>
 </g>
</svg>
