<svg xmlns="http://www.w3.org/2000/svg" xml:space="preserve" width="595px" height="842px" version="1.1" style="shape-rendering:geometricPrecision; text-rendering:geometricPrecision; image-rendering:optimizeQuality; fill-rule:evenodd; clip-rule:evenodd"
viewBox="0 0 595000 841500"
 xmlns:xlink="http://www.w3.org/1999/xlink">
 <g>
  <metadata/>
  <path class="fil0" d="M301239 426002l-7478 0c-295,0 -534,-239 -534,-534 0,-766 323,-1693 865,-2481 453,-657 1009,-1153 1610,-1442 -265,-241 -492,-534 -673,-870 -289,-537 -442,-1157 -442,-1795 0,-886 292,-1723 821,-2357 553,-661 1296,-1026 2092,-1026 797,0 1540,364 2092,1026 529,634 821,1471 821,2357 0,637 -153,1258 -442,1795 -181,335 -409,628 -673,869 601,289 1157,785 1610,1442 542,787 865,1714 865,2481 0,295 -239,534 -534,534l1 0zm-6877 -1068l6275 0c-103,-438 -318,-917 -609,-1341 -461,-670 -1037,-1109 -1621,-1235 -246,-53 -421,-271 -421,-522l0 -382c0,-192 103,-369 270,-464 662,-376 1089,-1205 1089,-2110 0,-1277 -828,-2315 -1845,-2315 -1017,0 -1846,1038 -1846,2315 0,906 428,1734 1090,2110 167,95 270,272 270,464l0 382c0,252 -175,469 -422,522 -584,126 -1159,564 -1621,1235 -292,424 -507,903 -609,1341l0 0z"/>
 </g>
</svg>
