<?xml-stylesheet href="window.css" type="text/css"?>
<svg xmlns="http://www.w3.org/2000/svg" xml:space="preserve" width="128px" height="128px" version="1.1" style="shape-rendering:geometricPrecision; text-rendering:geometricPrecision; image-rendering:optimizeQuality; fill-rule:evenodd; clip-rule:evenodd"
viewBox="0 0 128000 128000"
 xmlns:xlink="http://www.w3.org/1999/xlink">
 <g>
  <metadata/>
  <path class="fil0" d="M125714 118857l-4572 0 -2286 0 0 -110083c2706,-908 4571,-3411 4571,-6488 0,-3886 -2971,-6857 -6857,-6857l-105143 0c-3886,0 -6857,2971 -6857,6857 0,3043 1963,5526 4571,6459l0 110113 -2286 0 -4572 0c-1371,0 -2286,914 -2286,2286 0,1371 914,2286 2286,2286l2286 0 0 2286c0,3886 2971,6857 6857,6857l105143 0c3886,0 6857,-2971 6857,-6857l0 -2286 2286 0c1371,0 2286,-914 2286,-2286 0,-1371 -914,-2286 -2285,-2286zm-84572 -77714c-1371,0 -2286,914 -2286,2286 0,1371 914,2286 2286,2286 1372,0 2286,-914 2286,-2286 0,-1371 -914,-2286 -2286,-2286zm-1600 -7543c457,457 914,686 1600,686 686,0 1143,-228 1600,-686l6857 -6857c914,-914 914,-2286 0,-3200 -914,-914 -2286,-914 -3200,0l-6857 6857c-914,914 -914,2286 0,3200zm-9829 12114c686,0 1143,-228 1600,-686l4571 -4571c914,-914 914,-2286 0,-3200 -914,-914 -2286,-914 -3200,0l-4571 4571c-914,914 -914,2286 0,3200 457,457 914,686 1600,686zm0 11429c686,0 1143,-228 1600,-686l4571 -4571c914,-914 914,-2286 0,-3200 -914,-914 -2286,-914 -3200,0l-4571 4572c-914,914 -914,2286 0,3200 457,457 914,686 1600,686zm16686 -18971c457,457 914,686 1600,686 686,0 1143,-229 1600,-686l11428 -11429c914,-914 914,-2286 0,-3200 -914,-914 -2286,-914 -3200,0l-11429 11428c-914,914 -914,2286 0,3200zm-16686 -3886c686,0 1143,-228 1600,-686l6857 -6857c914,-914 914,-2286 0,-3200 -914,-914 -2286,-914 -3200,0l-6857 6857c-914,914 -914,2286 0,3200 457,457 914,686 1600,686zm-18286 -34286l105143 0c1371,0 2286,914 2286,2286 0,1371 -914,2286 -2286,2286l-105143 0c-1371,0 -2286,-1143 -2286,-2286 0,-1143 1143,-2286 2286,-2286zm2286 9143l100572 0 0 109715 -4572 0 0 -36571 0 -66286c0,-1371 -914,-2286 -2286,-2286l-86857 0c-1371,0 -2286,914 -2286,2286l0 66286 0 36571 -4572 0 0 -109715zm91429 70857l-82286 0 0 -61714 82286 0 0 61714zm-82286 4571l82286 0 0 34286 -82286 0 0 -34286zm96000 41143c0,1371 -914,2286 -2286,2286l-105143 0c-1371,0 -2286,-914 -2286,-2286l0 -2286 2286 0 9143 0 86857 0 9143 0 2286 0 0 2286 0 0z"/>
 </g>
</svg>
