<svg xmlns="http://www.w3.org/2000/svg" xml:space="preserve" width="1920px" height="1080px" version="1.1" style="shape-rendering:geometricPrecision; text-rendering:geometricPrecision; image-rendering:optimizeQuality; fill-rule:evenodd; clip-rule:evenodd"
viewBox="0 0 1920000 1080000"
 xmlns:xlink="http://www.w3.org/1999/xlink">
 <g>
  <metadata/>
  <path class="fil0" d="M771840 539702c0,4937 4189,9133 9133,9133 4937,0 9133,-4189 9133,-9133 0,-4945 -4192,-9133 -9133,-9133 -4945,0 -9133,4192 -9133,9133zm-23406 -60357l1465 1 -130 0c828,1 1629,672 1630,1500 0,829 -673,1501 -1502,1500l-3008 7c0,-1 -1504,-691 -1494,-1518 527,-44743 70916,-47355 71016,3113 198,99 -340,1501 -1496,1501 -829,2 -1501,-669 -1504,-1496l-24 -3262c-187,-40402 -62698,-41313 -64952,-1346zm24022 68921c-2241,-2241 -3617,-5322 -3617,-8564 0,-6585 5539,-12133 12133,-12133 6585,0 12133,5539 12133,12133 0,10583 -12967,16247 -20650,8564zm16625 -28903c250,-4415 1677,-8498 5127,-11435 861,-39 10769,-9504 11934,-10793 522,-582 1018,-1119 1550,-1698l0 -1c561,-609 1508,-652 2121,-91 611,560 651,1508 90,2120 -293,318 -585,637 -878,954 -385,363 -11229,10387 -12882,11787l-2 -4c-3168,2700 -4102,6654 -4102,10661 0,828 -672,1500 -1500,1500l-19130 0c-828,0 -1500,-672 -1500,-1500 0,-8484 2652,-16048 8470,-22292 4800,-5621 13938,-9402 13938,-17765l6 0c-44,-14950 -22102,-15377 -22670,-20 30,856 -635,1567 -1498,1567l-4013 -8 -1633 1c-1971,2 -1976,-2998 -2,-3000 1420,0 2841,7 4260,7 2082,-18109 28483,-16724 28545,1453l6 0c0,9919 -9064,13466 -14744,19801 -4924,5285 -7345,11578 -7635,18756l16143 0zm24299 -29929c-678,-478 -1613,-317 -2092,359 -478,676 -317,1612 359,2091 677,478 1613,318 2091,-359 480,-677 319,-1612 -358,-2091zm-54221 -8640c-30,-829 -723,-1476 -1551,-1448 -827,28 -1475,722 -1448,1550 30,828 724,1478 1551,1448 829,-27 1476,-722 1448,-1550z"/>
 </g>
</svg>
